<svg width="38" height="38" viewBox="0 0 38 38" fill="none" xmlns="http://www.w3.org/2000/svg">
<path d="M19 38C29.4934 38 38 29.4934 38 19C38 8.50659 29.4934 0 19 0C8.50659 0 0 8.50659 0 19C0 29.4934 8.50659 38 19 38Z" fill="white"/>
<path d="M15.5305 24.8371C14.8889 25.4815 13.8412 25.4787 13.1906 24.8308C12.54 24.1829 12.5328 23.1353 13.1745 22.4909L22.4696 13.1567C23.1113 12.5123 24.1589 12.5151 24.8095 13.163C25.4602 13.8109 25.4674 14.8585 24.8257 15.5029L15.5305 24.8371Z" fill="#5B6CFF"/>
<path d="M21.9695 25.4387C21.3278 26.0831 20.2802 26.0802 19.6296 25.4324C18.979 24.7845 18.9717 23.7369 19.6134 23.0925L28.9086 13.7583C29.5503 13.1139 30.5979 13.1167 31.2485 13.7646C31.8991 14.4125 31.9064 15.4601 31.2647 16.1045L21.9695 25.4387Z" fill="#5B6CFF"/>
<path d="M9.09158 24.2356C8.44989 24.88 7.40226 24.8771 6.75165 24.2292C6.10103 23.5813 6.0938 22.5337 6.7355 21.8893L16.0306 12.5551C16.6723 11.9107 17.72 11.9136 18.3706 12.5615C19.0212 13.2094 19.0284 14.257 18.3867 14.9014L9.09158 24.2356Z" fill="#5B6CFF"/>
</svg>
