<svg width="485" height="537" viewBox="0 0 485 537" fill="none" xmlns="http://www.w3.org/2000/svg">
<path d="M6.99923 402.56C14.7252 388.537 24.0001 376.93 32.389 371.906C51.9625 360.183 72.4909 353.454 96.6237 357.8C114.082 360.946 128.398 368.579 140.869 379.377C149.062 386.471 154.417 395.984 158.674 405.707C160.692 410.318 162.438 415.254 162.966 420.167C164.115 430.882 164.817 441.671 164.959 452.44C165.249 474.23 165.102 496.029 164.995 517.824C164.975 521.897 164.303 525.968 163.944 529.925C172.245 531.559 209.572 531.82 222.641 530.413V521.099C222.641 493.535 222.948 465.967 222.539 438.408C222.237 418.021 224.131 397.606 220.891 377.226C219.636 369.332 217.372 361.811 214.341 354.572C208.714 341.125 199.916 329.647 188.709 319.418C168.179 300.681 143.304 292.572 115.39 291.153C110.427 290.902 105.379 292.621 100.354 292.714C93.799 292.836 87.6646 294.306 81.5992 296.319C67.4231 301.024 54.5248 307.493 43.0088 316.884C33.1241 324.945 24.924 333.953 18.9392 344.651C9.01691 362.39 4.65507 381.295 6.99923 402.56ZM286.614 530.923V520.793C286.614 465.004 286.493 409.214 286.714 353.426C286.76 341.931 285.539 330.671 282.402 319.646C276.395 298.538 265.825 279.608 249.889 263.494C238.95 252.435 226.168 243.823 211.863 236.595C196.437 228.802 180.101 224.053 163.156 222.11C148.006 220.372 132.314 220.537 117.279 223.925C92.5728 229.493 70.0865 239.648 51.3201 255.916C33.8366 271.072 21.3315 289.536 13.5489 310.514C8.3919 324.407 5.19778 338.797 6.9854 354.954C9.91515 349.273 11.7905 344.447 14.7064 340.252C19.8582 332.836 24.9463 325.208 31.2968 318.723C51.1639 298.435 76.7601 288.342 105.53 285.214C120.142 283.626 134.777 285.658 148.635 290.107C171.197 297.352 190.806 308.719 205.248 327.176C219.855 345.841 228.548 366.524 228.882 389.488C229.522 433.725 229.074 477.977 229.075 522.226V530.923H286.614ZM293.044 531.245C303.294 531.245 312.526 531.276 321.756 531.237C331.268 531.195 340.782 531.409 350.622 531.101V525.42C350.605 451.36 350.536 377.3 350.639 303.242C350.657 292.721 348.768 282.556 346.484 272.315C340.027 243.267 324.108 219.042 302.925 197.6C287.021 181.495 267.384 170.189 246.018 161.401C225.662 153.029 204.223 149.25 182.111 148.691C173.64 148.476 165.236 149.123 156.727 150.168C140.507 152.157 125.022 156.103 110.122 162.002C78.1425 174.664 53.393 195.64 34.1046 222.193C25.1971 234.457 18.3985 247.82 14.2272 262.392C11.7887 270.911 9.89263 279.416 8.08427 288.038C6.67955 294.738 6.64874 301.088 6.72084 308.407C10.4353 300.36 12.9925 292.714 17.253 286.011C27.3334 270.155 38.9183 255.506 54.9748 243.999C67.7719 234.828 81.0893 226.884 96.2288 221.944C113.237 216.393 130.753 212.989 148.975 213.792C155.751 214.092 162.432 214.589 169.194 215.461C182.757 217.212 195.58 220.96 207.781 226.218C234.36 237.669 255.324 255.188 270.939 278.487C284.932 299.363 292.872 321.828 292.965 346.421C293.18 404.449 293.04 462.478 293.044 520.508C293.045 523.699 293.044 526.889 293.044 531.245ZM480.38 530.945V500.508C480.38 450.807 480.809 401.103 480.259 351.407C479.693 301.514 482.767 251.575 478.353 201.731C477.77 195.133 477.203 188.454 475.623 182.029C470.402 160.765 462.709 140.259 451.358 121.121C441.981 105.282 431.317 90.1726 417.459 77.3679C408.22 68.8454 398.946 60.2604 388.78 52.7555C379.267 45.7234 368.894 39.552 358.333 33.9269C337.691 22.9381 315.633 15.042 292.281 10.76C280.037 8.51476 267.738 6.27286 255.138 6.20714C236.408 6.10943 217.812 6.38183 199.265 9.87867C182.333 13.071 165.784 17.4091 150.16 23.9012C130.329 32.14 111.358 41.9014 94.5027 55.2012C79.5246 67.0202 65.6836 79.7431 54.0973 94.3554C41.3895 110.383 30.7146 127.606 22.858 146.335C14.0673 167.292 9.35523 189.037 6.53553 211.241C6.302 213.073 6.84609 214.991 7.02816 216.871C8.10146 215.214 7.96414 213.566 8.45363 212.103C18.7246 181.412 35.2911 153.992 59.4239 131.053C69.3601 121.609 80.9483 113.538 92.4575 105.703C121.533 85.9064 154.774 75.3551 190.119 71.8854C212.753 69.6644 235.855 70.4241 258.252 75.5859C291.601 83.2703 321.86 97.155 347.823 118.181C365.906 132.822 381.911 149.425 393.812 169.088C412.444 199.89 422.456 233.099 422.679 268.352C423.177 352.359 422.834 436.369 422.834 520.38V530.945H480.38ZM222.79 146.578L222.809 146.598C223.846 147.2 224.805 148.083 225.931 148.356C230.152 149.373 234.682 149.63 238.627 151.199C246.281 154.243 253.619 157.984 259.923 160.897C261.68 159.768 262.724 158.58 263.819 158.535C264.918 158.49 266.435 159.344 267.121 160.237C268.403 161.902 268.739 164.441 270.321 165.622C274.258 168.561 278.811 170.772 282.878 173.577C296.375 182.886 308.329 193.606 318.944 205.855C323.936 211.622 326.426 219.541 334.428 223.009C334.978 223.243 335.493 224.784 335.201 225.254C332.986 228.69 336.936 230.259 337.52 232.895C339.512 232.295 341.349 231.739 343.049 231.227C346.896 235.323 342.259 236.651 340.851 238.685C343.015 243.804 345.007 248.807 347.291 253.688C348.047 255.292 349.317 256.919 350.811 257.946C355.74 261.323 355.826 261.219 350.76 265.495C358.453 283.825 356.942 303.275 356.994 323.128C360.497 321.062 363.021 321.384 364.618 324.557C363.021 327.694 360.531 328.13 356.891 325.892C357.337 336.994 356.444 347.45 357.44 357.659C360.377 358.147 362.592 358.519 364.755 358.882C364.635 364.789 360.617 363.543 357.268 363.37V376.701C360.932 376.109 363.324 377.452 364.446 380.729C361.956 381.244 359.484 381.754 357.457 382.175V393.988C360.291 394.688 362.643 395.27 364.944 395.837C363.88 400.983 360.737 400.537 357.2 399.638V413.444C360.514 411.435 363.021 411.813 364.515 414.735C363.279 418.866 360.394 418.046 357.509 416.747V430.741C362.592 429.914 364.927 430.719 364.807 433.243C364.567 438.699 359.415 434.385 357.286 436.145V447.887C359.93 448.437 362.403 448.949 364.738 449.437C364.584 455.411 360.497 454.023 357.32 453.555V467.293C361.064 466.562 363.399 467.918 364.326 471.36C362.042 471.669 359.792 471.974 357.509 472.285V484.644C360.273 485.073 362.54 485.424 364.653 485.751C365.305 492.532 359.312 488.267 357.268 490.203V503.847C360.6 502.037 363.158 501.993 364.446 505.389C363.073 509.303 360.136 508.333 357.251 507.072V521.782C360.995 518.45 364.12 520.171 364.636 523.029C365.7 529.118 359.191 524.769 356.959 526.888C357.114 528.227 357.251 529.426 357.406 530.612C364.223 532.899 370.646 529.119 377.36 531.005C383.577 532.75 390.257 529.317 397.023 531.087C403.308 532.729 409.662 528.747 416.446 531.018V519.468C416.446 442.877 416.325 366.285 416.514 289.695C416.566 269.067 416.154 248.533 411.534 228.254C409.817 227.629 408.048 226.989 405.094 225.911C411.689 220.999 408.117 216.231 406.846 211.231C405.352 205.379 402.776 200.669 396.061 198.387C397.435 196.401 398.466 194.93 399.822 192.971C394.808 184.625 389.742 176.099 384.556 167.641C383.869 166.546 382.667 165.175 381.516 165.005C378.236 164.518 377.361 163.542 377.996 160.204C378.649 156.72 376.862 155.569 372.449 155.851C368.946 156.075 367.658 154.503 367.297 151.564C368.431 150.848 369.53 150.167 370.612 149.485C369.083 147.45 367.554 145.417 366.026 143.383C362.683 145.676 359.747 145.766 357.217 143.654C357.887 142.933 358.453 142.096 359.243 141.516C360.17 140.83 361.287 140.367 362.798 139.554C359.896 137.208 357.354 135.136 354.796 133.064C354.091 132.434 353.404 131.804 352.718 131.176C350.073 128.726 347.445 126.275 344.818 123.825C344.561 123.614 344.32 123.384 344.097 123.133C340.971 118.027 336.283 117.411 330.238 120.017C329.844 114.631 330.135 109.197 322.442 110.038C321.648 110.124 320.395 109.514 319.94 108.868C313.998 100.45 304.133 98.1036 294.974 94.6549L294.943 94.6292C291.356 90.5844 286.776 91.897 282.471 92.8377C280.803 90.9579 279.668 88.4433 277.794 87.7991C272.151 85.86 266.302 84.0827 260.376 83.3439C255.985 82.7974 251.762 82.6388 247.754 80.5042C244.816 78.94 241.684 77.9608 238.981 81.658C236.99 84.3808 234.279 83.7206 232.233 81.2351C231.248 80.0363 230.459 78.6948 229.913 77.8984H221.03C218.559 80.3631 217.357 82.6646 215.693 83.0027C211.437 83.8697 213.3 79.3119 211.521 77.9481H198.8C199.289 79.3328 199.942 80.2638 199.811 81.0842C199.698 81.799 198.813 82.7783 198.07 82.9722C193.04 84.2848 194.482 79.6291 192.799 77.7318C188.568 78.5763 183.224 78.2477 180.488 80.5811C177.789 82.884 176.86 82.8664 174.011 81.666C172.017 80.8279 169.204 80.9801 166.97 81.4929C161.492 82.7494 156.136 84.4705 151.319 85.8391C150.725 88.5314 150.275 90.5684 149.605 93.6069C147.465 92.1214 146.315 90.9561 144.891 90.4305C143.15 89.7847 140.862 88.9114 139.363 89.4578C131.673 92.2592 122.905 93.6935 119.384 102.142C114.227 99.0813 110.683 100.998 107.435 104.174L107.238 104.343C105.955 104.674 104.479 104.73 103.421 105.379C82.1832 118.427 63.5921 134.223 48.1212 153.045C42.0386 160.444 36.9157 168.529 32.176 175.157C33.6065 177.95 35.2038 179.564 34.9942 180.938C34.3537 185.122 29.4215 181.733 26.7546 185.137C24.3452 190.347 21.4262 196.656 18.4982 202.989C23.1806 204.661 24.569 207.097 22.6639 210.295C20.9175 209.117 19.2126 207.972 16.6333 206.233C17.3373 215.303 12.0893 222.07 10.3239 229.416C12.6457 231.246 14.4918 232.701 18.1393 235.576C13.6383 236.057 11.3833 236.299 8.90349 236.563C8.00713 244.36 7.04408 252.748 6.08064 261.136C10.1917 249.469 16.949 239.137 21.9189 228.64C20.7305 227.166 18.7848 225.711 19.0562 224.919C20.217 221.541 22.9321 221.037 26.516 222.983C27.4794 220.185 27.9327 217.249 29.4508 214.917C30.9414 212.627 33.6013 211.024 35.5967 208.991C42.9672 201.468 49.8658 193.494 57.7343 186.46C64.2463 180.636 72.5012 176.561 77.8213 169.439C78.3639 168.715 79.3531 168.175 80.2563 167.813C83.2014 166.635 86.4712 163.237 87.3367 160.577C87.6218 159.705 88.4942 158.998 89.1073 158.202C91.5251 159.7 93.4038 160.862 95.1177 161.925C99.1395 159.978 102.897 158.43 106.338 156.412C109.383 154.628 112.977 154.393 116.044 152.04C118.722 149.982 123.561 150.385 127.44 149.676C127.76 149.617 128.024 149.309 128.345 149.231C133.524 147.971 138.709 146.729 143.356 145.61C145.058 143.747 146.505 142.16 148.451 140.029C151.044 143.349 153.04 145.429 157.707 143.54C162.265 141.695 167.497 140.609 173.022 142.421C175.972 143.389 179.963 142.86 183.042 141.843C185.913 140.894 187.949 141.463 190.674 141.937C195.834 142.836 201.571 145.808 206.642 140.118C210.781 145.564 216.271 147.361 222.79 146.578ZM10.0854 412.395C7.8631 418.222 6.44423 424.166 6.45462 430.411C6.5044 461.472 6.46521 492.532 6.4978 523.593C6.49959 526.043 6.80324 528.49 7.00929 531.588C12.0237 531.122 16.3633 530.433 20.7081 530.393C25.2778 530.352 29.8491 531.042 34.4291 531.188C36.0554 531.239 37.6954 530.492 39.3491 530.369C40.8707 530.255 42.4779 530.272 43.9496 530.603C49.7437 531.904 55.3647 529.857 60.8427 529.877C66.3311 529.894 72.0651 532.059 77.7115 530.558C79.7997 530.002 81.1699 529.918 83.301 530.521C88.9337 532.12 94.6641 529.886 100.156 529.862C105.634 529.84 111.385 532.218 116.999 530.457C119.214 529.763 120.607 530.242 122.599 530.603C127.535 531.502 132.508 530.58 137.497 530.122C142.408 529.673 148.02 531.742 153.397 530.954C155.25 530.681 156.893 529.17 158.659 528.21C158.659 525.474 159.176 522.793 158.511 520.399C157.876 518.115 156.009 516.13 155.181 514.809C156.533 511.247 158.554 508.36 158.452 505.541C158.339 502.37 156.309 499.259 155.045 495.944C159.002 491.189 161.561 486.193 155.638 480.588C154.817 479.812 154.7 477.123 155.458 476.362C161.106 470.693 159.438 465.5 154.824 460.618C154.862 459.985 154.747 459.567 154.918 459.37C159.366 454.301 161.66 449.288 155.421 443.794C154.714 443.172 155.095 439.996 155.78 439.714C160.335 437.839 159.469 433.728 158.367 431.493C156.115 426.927 156.011 422.377 155.398 417.634C154.81 413.077 152.15 408.784 150.713 404.288C149.288 399.831 143.613 398.05 142.992 392.851C142.848 391.637 137.867 391.384 136.32 389.714C135 388.289 135.704 385.369 134.926 383.303C134.594 382.423 132.838 381.77 131.605 381.487C130.03 381.132 128.328 381.257 126.439 381.16C125.611 377.451 125.414 373.606 120.19 373.489C119.005 373.462 117.585 372.624 116.725 371.765C112.478 367.529 106.987 366.367 101.154 365.917L101.166 365.925C101.037 365.628 100.974 365.117 100.773 365.064C89.2446 362.087 77.6222 361.564 65.9618 364.249C63.5216 364.809 61.5791 365.853 63.6622 368.954C64.1843 369.731 62.2971 371.922 61.6908 373.12C56.4085 371.955 58.2926 368.976 59.1581 365.84C56.7745 366.723 54.8937 367.281 53.1455 368.092C48.5776 370.207 43.8366 372.103 39.6052 374.712C35.5816 377.193 33.7665 382.161 28.2954 383.391C26.9076 383.702 26.1142 386.33 25.0562 387.898C24.3865 388.893 23.9622 390.162 23.0366 390.855C15.8189 396.263 12.5306 403.629 10.7533 411.789L10.0854 412.395ZM484.81 537H0.700321C0.471924 534.527 0.0492161 532.091 0.0492161 529.657C0.0252086 426.127 -0.101609 322.598 0.180024 219.069C0.229808 201.113 4.24105 183.523 9.04772 166.101C16.3169 139.763 29.7445 116.221 45.8354 93.8712C49.6151 88.6245 54.2669 83.8713 58.9019 79.2254C67.2307 70.8792 75.3776 62.2637 84.8535 55.0777C95.8921 46.7059 107.029 38.1673 119.242 31.4863C141.75 19.1752 165.806 9.45063 191.439 4.68614C204.908 2.18309 218.643 -0.676008 232.749 0.142893C241.644 0.660526 250.605 0.125288 259.531 0.293526C275.138 0.585212 290.284 3.66213 305.369 7.12698C324.211 11.4554 341.83 18.6367 358.831 27.2105C376.227 35.983 392.627 46.0791 406.691 59.2074C411.706 63.8934 416.772 68.5409 421.752 73.2589C449.28 99.3264 466.882 130.848 478.078 165.455C482.956 180.497 485.051 196.162 484.999 212.198C484.638 316.687 484.81 421.179 484.81 525.67V537Z" fill="white"/>
<path d="M303.033 166.678C301.421 164.559 299.408 163.059 299.573 161.809C299.743 160.526 302.094 158.542 303.391 158.607C304.691 158.673 306.782 160.861 306.83 162.173C306.878 163.436 304.752 164.768 303.033 166.678Z" fill="white"/>
<path d="M401.368 527.88C397.933 526.391 395.1 525.516 396.851 522.224C397.71 520.585 399.41 519 401.763 520.59C406.159 523.567 401.11 525.048 401.368 527.88Z" fill="white"/>
<path d="M238.802 97.3264C238.011 98.8409 237.164 100.458 236.012 102.663C234.423 101.671 232.556 101.11 232.022 99.9947C231.533 98.9691 232.036 97.006 232.878 96.054C235.16 93.4723 236.966 95.2526 238.802 97.3264Z" fill="white"/>
<path d="M200.069 124.011H209.773C210.776 127.224 208.791 128.934 206.504 128.846C204.886 128.785 203.361 126.605 200.069 124.011Z" fill="white"/>
<path d="M373.376 464.812C368.316 461.661 368.075 458.796 372.655 456.217C372.878 458.831 373.067 461.047 373.376 464.812Z" fill="white"/>
<path d="M359.518 167.83C359.26 163.269 359.14 161.022 359.037 158.92C362.815 157.702 364.601 159.665 364.601 161.711C364.601 163.178 362.3 164.644 359.518 167.83Z" fill="white"/>
<path d="M358.917 310.405C358.917 307.956 358.573 306.637 359.02 305.607C359.466 304.532 360.686 303.735 361.579 302.801C364.406 305.605 363.519 308.14 358.917 310.405Z" fill="white"/>
<path d="M409.816 293.62C411.053 295.397 412.341 296.443 412.461 297.604C412.736 299.921 410.898 301.035 408.735 300.336C407.67 299.987 406.434 298.221 406.502 297.16C406.554 296.152 408.22 295.227 409.816 293.62Z" fill="white"/>
<path d="M384.796 198.048C382.873 199.18 381.739 200.356 380.486 200.476C377.996 200.712 376.828 198.992 377.6 196.983C377.978 195.976 379.885 194.825 381.018 194.901C382.1 194.974 383.079 196.532 384.796 198.048Z" fill="white"/>
<path d="M384.796 288.722C382.787 289.737 381.43 290.992 380.366 290.806C379.215 290.605 377.67 289.147 377.498 288.067C377.12 285.777 378.975 284.66 381.173 285.272C382.34 285.597 383.148 287.084 384.796 288.722Z" fill="white"/>
<path d="M343.41 157.891C345.247 161.699 344.698 163.965 341.177 165.306C339.013 162.794 339.758 160.323 343.41 157.891Z" fill="white"/>
<path d="M374.887 224.47C374.321 225.194 373.84 226.464 373.153 226.563C371.384 226.823 369.512 226.569 367.675 226.52C367.743 225.664 367.451 224.581 367.898 223.992C369.358 222.109 371.109 220.528 373.582 222.927C374.046 223.375 374.406 223.903 374.887 224.47Z" fill="white"/>
<path d="M104.384 116.844C102.546 118.126 101.487 119.431 100.233 119.621C97.7432 119.998 96.5067 118.301 97.1404 116.258C97.453 115.243 99.2697 113.992 100.383 114.012C101.502 114.032 102.593 115.495 104.384 116.844Z" fill="white"/>
<path d="M157.489 112.771C159.062 114.355 160.723 115.282 160.781 116.29C160.845 117.363 159.632 119.144 158.554 119.5C156.378 120.219 154.556 119.054 154.774 116.772C154.886 115.61 156.227 114.553 157.489 112.771Z" fill="white"/>
<path d="M390.721 366.218C395.443 369.229 394.069 371.423 389.896 373.716C386.668 371.208 386.908 368.949 390.721 366.218Z" fill="white"/>
<path d="M192.744 117.153C194.41 115.66 195.377 114.091 196.442 114.03C197.594 113.964 199.512 115.078 199.902 116.081C200.686 118.094 199.478 119.822 197.022 119.642C195.786 119.552 194.647 118.312 192.744 117.153Z" fill="white"/>
<path d="M399.29 302.971C402.45 304.705 403.412 306.902 401.059 309.865C397.178 307.968 396.588 305.67 399.29 302.971Z" fill="white"/>
<path d="M61.3661 166.67C62.6076 168.466 63.8904 169.521 64.0313 170.694C64.3146 173.053 62.4204 174.075 60.2945 173.391C59.2246 173.047 57.9987 171.28 58.0674 170.228C58.1342 169.212 59.7759 168.287 61.3661 166.67Z" fill="white"/>
<path d="M403.669 288.188C401.797 291.076 399.462 292.086 396.302 289.786C398.351 286.118 400.807 285.586 403.669 288.188Z" fill="white"/>
<path d="M215.117 120.751C213.902 118.926 212.621 117.843 212.516 116.668C212.303 114.307 214.245 113.314 216.355 114.011C217.408 114.36 218.602 116.176 218.497 117.221C218.394 118.258 216.737 119.157 215.117 120.751Z" fill="white"/>
<path d="M254.306 120.735C253.081 118.932 251.778 117.855 251.678 116.689C251.479 114.368 253.373 113.309 255.503 114.025C256.568 114.384 257.768 116.184 257.673 117.235C257.582 118.261 255.915 119.161 254.306 120.735Z" fill="white"/>
<path d="M355.912 207.601C353.971 208.744 352.803 209.953 351.567 210.044C349.06 210.228 347.961 208.433 348.716 206.465C349.094 205.483 351.035 204.385 352.168 204.475C353.267 204.563 354.228 206.105 355.912 207.601Z" fill="white"/>
<path d="M312.676 112.743C314.012 114.46 315.526 115.551 315.473 116.57C315.418 117.642 314.036 119.287 312.927 119.548C310.66 120.081 309.003 118.764 309.518 116.488C309.779 115.344 311.196 114.429 312.676 112.743Z" fill="white"/>
<path d="M374.905 207.193C372.214 209.374 369.558 208.886 366.936 205.728C370.354 203.247 372.81 203.93 374.905 207.193Z" fill="white"/>
<path d="M384.796 270.897C382.907 272.116 381.809 273.379 380.555 273.519C378.082 273.798 376.88 272.06 377.583 270.052C377.927 269.052 379.816 267.898 380.95 267.939C382.032 267.977 383.062 269.482 384.796 270.897Z" fill="white"/>
<path d="M409.817 392.029C408.22 390.416 406.554 389.484 406.486 388.462C406.417 387.411 407.67 385.656 408.769 385.3C410.933 384.589 412.754 385.712 412.479 388.031C412.341 389.198 411.053 390.246 409.817 392.029Z" fill="white"/>
<path d="M342.809 219.983C339.534 217.376 339.117 214.894 341.555 212.536C344.577 214.313 345.78 216.469 342.809 219.983Z" fill="white"/>
<path d="M403.875 397.576C400.681 401.911 398.328 400.666 395.873 396.776C398.552 393.805 400.956 393.978 403.875 397.576Z" fill="white"/>
<path d="M395.873 215.041C399.925 212.844 402.106 214.044 403.789 216.871C401.019 218.91 398.38 218.3 395.873 215.041Z" fill="white"/>
<path d="M298.828 124.429C302.91 122.775 305.351 123.237 306.78 126.538C304.076 128.507 301.425 127.804 298.828 124.429Z" fill="white"/>
<path d="M100.115 138.503C99.2288 137.912 98.9404 137.745 98.6844 137.543C96.5206 135.841 96.196 133.788 98.0626 131.884C98.4868 131.452 100.596 131.863 101.425 132.477C104.654 134.868 102.905 136.711 100.115 138.503Z" fill="white"/>
<path d="M375.832 406.589C372.535 407.359 370.302 407.885 366.662 408.737C367.589 406.27 367.727 405.053 368.414 404.258C370.904 401.39 372.947 402.651 375.832 406.589Z" fill="white"/>
<path d="M384.796 415.307C382.907 416.493 381.791 417.734 380.538 417.859C378.065 418.111 376.862 416.387 377.583 414.367C377.944 413.361 379.851 412.197 380.984 412.255C382.066 412.308 383.079 413.847 384.796 415.307Z" fill="white"/>
<path d="M120.382 131.08C122.865 134.513 121.983 136.654 119.196 137.998C118.641 138.266 116.659 137.182 116.295 136.354C114.865 133.099 117.465 132.2 120.382 131.08Z" fill="white"/>
<path d="M139.571 138.615C135.924 136.593 134.938 134.412 137.376 131.469C140.861 133.186 141.593 135.568 139.571 138.615Z" fill="white"/>
<path d="M195.067 130.923C198.637 133.397 199.33 135.883 197.144 138.381C193.755 136.932 193.044 134.702 195.067 130.923Z" fill="white"/>
<path d="M367.366 422.826C370.508 420.557 372.861 421.453 374.75 424.368C371.911 426.932 369.449 426.418 367.366 422.826Z" fill="white"/>
<path d="M215.476 138.415C212.914 136.766 211.015 134.972 214.249 132.521C215.083 131.889 217.3 131.452 217.608 131.83C220.008 134.78 218.684 136.912 215.476 138.415Z" fill="white"/>
<path d="M398.929 436.815C396.868 433.914 397.51 431.517 400.853 429.624C403.497 432.446 402.484 434.597 398.929 436.815Z" fill="white"/>
<path d="M231.514 134.144C234.177 132.003 236.809 132.46 239.41 135.516C236.039 138.157 233.609 137.389 231.514 134.144Z" fill="white"/>
<path d="M350.365 221.165C351.962 222.552 353.885 223.517 354.452 224.948C354.83 225.885 353.267 227.499 352.391 229.127C348.407 227.177 347.291 225.063 350.365 221.165Z" fill="white"/>
<path d="M293.885 138.448C290.847 136.753 289.501 134.639 291.868 131.561C295.908 133.259 296.58 135.555 293.885 138.448Z" fill="white"/>
<path d="M314.376 131.469C316.828 134.416 315.796 136.589 312.693 138.346C309.907 135.672 310.467 133.379 314.376 131.469Z" fill="white"/>
<path d="M374.888 441.956C373.05 444.76 370.783 446.052 367.486 443.808C369.341 440.025 371.808 439.408 374.888 441.956Z" fill="white"/>
<path d="M380.572 447.52C381.946 449.204 383.337 450.159 383.56 451.309C383.989 453.589 382.306 454.866 380.057 454.265C378.958 453.974 377.601 452.302 377.601 451.241C377.584 450.224 379.146 449.188 380.572 447.52Z" fill="white"/>
<path d="M380.108 357.115C381.705 358.688 383.371 359.595 383.44 360.595C383.508 361.662 382.306 363.442 381.241 363.8C379.078 364.521 377.24 363.414 377.463 361.111C377.566 359.955 378.872 358.901 380.108 357.115Z" fill="white"/>
<path d="M371.315 364.729C372.346 368.511 372.912 370.598 373.857 374.013C371.178 373.135 369.753 373.059 369.048 372.359C366.919 370.28 367.022 370.186 371.315 364.729Z" fill="white"/>
<path d="M366.662 353.005C369.535 349.808 372.249 349.351 374.802 351.633C372.964 354.652 370.526 355.314 366.662 353.005Z" fill="white"/>
<path d="M75.5182 144.075C73.5811 145.239 72.4461 146.442 71.1856 146.572C68.651 146.835 67.5637 145.053 68.2902 143.072C68.656 142.077 70.5588 140.932 71.6853 141.003C72.7861 141.072 73.7821 142.598 75.5182 144.075Z" fill="white"/>
<path d="M384.659 470.203C382.495 470.895 380.949 471.915 379.902 471.581C378.82 471.242 377.566 469.592 377.549 468.49C377.481 466.028 379.696 465.456 381.636 466.224C382.752 466.663 383.319 468.333 384.659 470.203Z" fill="white"/>
<path d="M403.686 468.725C402.192 472.038 399.702 472.382 396.44 471.164C398.077 467.102 400.492 466.289 403.686 468.725Z" fill="white"/>
<path d="M90.7108 147.699C88.8956 146.176 87.2747 145.458 86.8951 144.365C86.1774 142.29 87.4309 140.594 89.8488 140.878C90.9942 141.013 92.576 142.445 92.8096 143.509C93.0294 144.511 91.7361 145.801 90.7108 147.699Z" fill="white"/>
<path d="M379.765 374.491C381.533 376.019 383.097 376.753 383.474 377.841C384.161 379.899 382.993 381.617 380.538 381.292C379.387 381.14 377.79 379.724 377.566 378.67C377.361 377.668 378.7 376.39 379.765 374.491Z" fill="white"/>
<path d="M128.268 147.691C127.174 145.811 125.822 144.541 126.023 143.546C126.24 142.481 127.816 141.042 128.975 140.881C131.438 140.538 132.602 142.287 131.946 144.332C131.598 145.42 130.011 146.163 128.268 147.691Z" fill="white"/>
<path d="M366.799 476.57C370.886 474.839 373.325 475.352 374.802 478.636C372.088 480.708 369.421 480.02 366.799 476.57Z" fill="white"/>
<path d="M222.79 146.578C222.797 145.359 222.337 143.857 222.933 142.99C223.628 141.981 225.196 141.141 226.489 140.985C227.202 140.899 228.888 142.46 228.796 143.117C228.629 144.328 227.734 145.795 226.652 146.448C225.727 147.009 224.116 146.585 222.809 146.598L222.79 146.578Z" fill="white"/>
<path d="M347.359 171.085C349.077 169.574 350.056 168.016 351.155 167.95C352.288 167.88 354.194 169.026 354.572 170.034C355.362 172.067 354.126 173.745 351.653 173.519C350.416 173.407 349.283 172.221 347.359 171.085Z" fill="white"/>
<path d="M374.939 170.654C374.304 171.481 374.115 171.748 373.909 171.985C372.088 173.987 369.89 174.304 367.847 172.569C367.383 172.178 367.83 170.208 368.499 169.434C371.058 166.436 373.033 168.053 374.939 170.654Z" fill="white"/>
<path d="M380.074 509.389C378.854 507.58 377.566 506.511 377.463 505.344C377.24 503.003 379.129 501.969 381.258 502.682C382.323 503.041 383.525 504.836 383.422 505.891C383.336 506.908 381.688 507.811 380.074 509.389Z" fill="white"/>
<path d="M284.003 139.726C285.263 141.506 286.578 142.556 286.707 143.719C286.966 146.037 285.112 147.138 282.96 146.449C281.887 146.106 280.664 144.338 280.724 143.274C280.781 142.266 282.424 141.335 284.003 139.726Z" fill="white"/>
<path d="M380.091 238.1C378.854 236.305 377.566 235.243 377.463 234.084C377.24 231.768 379.112 230.698 381.259 231.416C382.323 231.775 383.508 233.562 383.422 234.626C383.354 235.626 381.688 236.526 380.091 238.1Z" fill="white"/>
<path d="M323.056 139.73C324.348 141.492 325.705 142.527 325.842 143.689C326.117 146 324.262 147.112 322.108 146.458C321.039 146.133 319.795 144.367 319.849 143.309C319.902 142.29 321.525 141.339 323.056 139.73Z" fill="white"/>
<path d="M55.5224 180.417C52.3591 182.435 49.7895 181.831 47.8135 178.606C50.8874 176.128 53.1937 177.151 55.5224 180.417Z" fill="white"/>
<path d="M367.331 262.769C369.312 259.517 371.848 258.863 374.939 260.805C373.102 264.031 370.886 265.203 367.331 262.769Z" fill="white"/>
<path d="M357.097 180.467C359.346 177.173 361.647 176.137 364.773 178.566C362.849 181.852 360.291 182.486 357.097 180.467Z" fill="white"/>
<path d="M380.881 176.236C382.134 178.011 383.456 179.051 383.594 180.212C383.851 182.516 382.048 183.675 379.867 182.991C378.786 182.652 377.566 180.875 377.618 179.803C377.669 178.792 379.318 177.851 380.881 176.236Z" fill="white"/>
<path d="M176.458 95.0829C179.528 96.7367 180.785 98.8537 178.542 101.924C174.532 100.268 173.837 97.9878 176.458 95.0829Z" fill="white"/>
<path d="M372.14 283.387C368.602 280.933 367.927 278.466 370.114 275.985C373.445 277.445 374.321 279.626 372.14 283.387Z" fill="white"/>
<path d="M380.881 320.557C382.151 322.346 383.456 323.397 383.594 324.569C383.868 326.9 381.997 327.985 379.85 327.304C378.785 326.966 377.549 325.192 377.618 324.139C377.686 323.112 379.318 322.174 380.881 320.557Z" fill="white"/>
<path d="M211.728 110.732C207.192 109.66 204.951 109.129 202.236 108.487C205.142 105.228 208.306 105.977 211.728 110.732Z" fill="white"/>
<path d="M36.2545 198.919C34.077 199.624 32.5349 200.649 31.4633 200.324C30.39 199.997 29.1418 198.337 29.1125 197.236C29.0474 194.8 31.2112 194.144 33.2032 194.936C34.3228 195.38 34.8859 197.044 36.2545 198.919Z" fill="white"/>
<path d="M357.285 197.601C359.942 195.444 362.58 195.924 365.202 199.04C361.802 201.587 359.364 200.88 357.285 197.601Z" fill="white"/>
<path d="M374.905 297.62C372.226 299.786 369.57 299.299 366.936 296.157C370.354 293.668 372.81 294.384 374.905 297.62Z" fill="white"/>
<path d="M404.047 342.046C402.725 343.008 401.608 344.231 400.2 344.718C399.153 345.08 397.745 344.481 396.371 344.293C398.065 340.233 400.624 339.484 404.047 342.046Z" fill="white"/>
<path d="M374.922 243.77C372.174 245.876 369.547 245.35 367.04 242.191C370.491 239.728 372.878 240.582 374.922 243.77Z" fill="white"/>
<path d="M52.5701 158.407C55.0222 161.351 54.0177 163.532 50.8889 165.28C48.1481 162.634 48.7085 160.343 52.5701 158.407Z" fill="white"/>
<path d="M411.088 347.806C412.187 352.474 410.321 354.134 405.489 352.785C407.481 351.016 409.061 349.611 411.088 347.806Z" fill="white"/>
<path d="M403.669 361.26C401.608 364.325 399.359 365.088 396.817 361.7C398.878 359.06 401.162 358.914 403.669 361.26Z" fill="white"/>
<path d="M409.439 373.241C405.61 371.05 405.163 368.826 409.319 366.341C413.406 368.452 413.664 370.685 409.439 373.241Z" fill="white"/>
<path d="M396.405 378.406C398.912 374.755 401.351 374.619 403.738 378.497C401.196 382.383 398.775 382.234 396.405 378.406Z" fill="white"/>
<path d="M172.785 88.5475C169.896 90.6662 168.31 91.8312 166.469 93.1805C165.301 88.7853 167.406 87.2409 172.785 88.5475Z" fill="white"/>
<path d="M191.155 90.7974C189.044 91.7126 187.406 92.767 187.098 92.4978C185.805 91.3663 184.91 89.8392 183.87 88.4562C184.91 87.9257 186.319 86.7173 186.916 87.0011C188.295 87.6516 189.283 89.0282 191.155 90.7974Z" fill="white"/>
<path d="M200.686 88.3647C206.15 87.2653 208.182 88.8733 206.783 93.1885C205.015 91.7879 203.485 90.5795 200.686 88.3647Z" fill="white"/>
<path d="M221.524 89.36C223.681 88.3247 225.074 87.3472 226.607 87.0812C227.176 86.9833 228.078 88.5554 228.826 89.3663C227.411 90.4304 226.062 91.6036 224.502 92.4337C224.293 92.5459 223.03 90.937 221.524 89.36Z" fill="white"/>
<path d="M248.642 88.985C247.359 90.7061 246.238 92.4434 246.089 92.3728C244.481 91.6196 243.027 90.5811 241.529 89.6212C242.201 88.7445 242.953 87.0939 243.529 87.1453C245.056 87.2783 246.509 88.1516 248.642 88.985Z" fill="white"/>
<path d="M268.901 88.3487C266.964 90.1933 265.427 91.6596 263.459 93.533C262.244 88.9304 264.058 87.2023 268.901 88.3487Z" fill="white"/>
<path d="M374.87 387.895C372.586 391.885 370.182 391.739 367.469 388.196C369.77 384.302 372.157 384.162 374.87 387.895Z" fill="white"/>
<path d="M386.462 387.613C388.608 386.568 389.982 385.584 391.511 385.318C392.077 385.218 392.988 386.79 393.743 387.601C392.335 388.662 390.995 389.834 389.45 390.658C389.227 390.773 387.973 389.175 386.462 387.613Z" fill="white"/>
<path d="M139.305 95.0395C143.485 97.7958 142.733 99.8985 139.363 101.899C135.305 99.8488 134.912 97.658 139.305 95.0395Z" fill="white"/>
<path d="M157.63 94.9162C161.542 97.1775 162.105 99.288 158.471 101.604C155.942 99.8088 155.662 97.5797 157.63 94.9162Z" fill="white"/>
<path d="M196.987 95.022C199.849 96.8072 201.47 98.6613 198.298 100.99C197.699 101.431 195.834 101.157 195.169 100.586C192.597 98.3793 194.321 96.8024 196.987 95.022Z" fill="white"/>
<path d="M215.586 102.016C211.346 99.2655 211.949 97.1581 215.523 95.094C219.634 97.1581 219.673 99.3681 215.586 102.016Z" fill="white"/>
<path d="M254.525 94.9193C258.453 97.1757 259.031 99.2863 255.37 101.605C252.824 99.8092 252.542 97.5806 254.525 94.9193Z" fill="white"/>
<path d="M294.974 94.6549C295.969 97.0379 299.161 99.5524 294.318 101.471C291.465 99.4428 291.674 97.1624 294.943 94.6292L294.974 94.6549Z" fill="white"/>
<path d="M275.509 104.041C272.734 101.134 271.358 99.6935 268.7 96.9082C272.349 97.1149 274.68 96.634 275.674 97.4961C276.481 98.1964 275.689 100.506 275.509 104.041Z" fill="white"/>
<path d="M107.435 104.174C109.416 104.939 111.395 105.705 113.585 106.551C111.595 109.229 110.317 111.157 107.331 109.216C104.724 107.522 106.877 105.966 107.238 104.343L107.435 104.174Z" fill="white"/>
<path d="M389.433 402.605C391.991 403.279 394.395 404.263 393.193 407.311C392.936 407.954 389.845 408.475 388.969 407.88C386.788 406.377 386.908 404.339 389.433 402.605Z" fill="white"/>
<path d="M144.218 108.333C145.357 106.952 146.499 105.567 148.563 103.064C149.487 105.586 150.898 107.426 150.397 108.456C149.064 111.206 146.784 110.564 144.218 108.333Z" fill="white"/>
<path d="M172.089 108.663C167.159 109.799 165.323 108.093 166.584 103.544C168.548 105.371 170.11 106.82 172.089 108.663Z" fill="white"/>
<path d="M187.605 111.077C185.76 109.863 183.901 108.814 183.98 108.666C184.783 107.16 185.905 105.799 186.939 104.399C187.88 105.033 189.657 105.74 189.6 106.285C189.454 107.714 188.508 109.073 187.605 111.077Z" fill="white"/>
<path d="M403.738 414.898C401.454 418.77 399.067 418.962 396.422 415.066C398.706 411.199 401.093 410.999 403.738 414.898Z" fill="white"/>
<path d="M224.408 103.535C226.329 105.371 227.856 106.83 229.811 108.695C224.825 109.803 223.024 108.083 224.408 103.535Z" fill="white"/>
<path d="M245.834 103.152C247.914 107.004 248.664 109.168 245.451 109.902C244.378 110.147 242.908 108.883 241.62 108.309C242.807 106.855 243.993 105.403 245.834 103.152Z" fill="white"/>
<path d="M263.806 104.017C265.271 105.081 266.739 106.148 269.395 108.08C266.721 108.94 264.745 110.265 263.646 109.798C260.716 108.546 261.4 106.415 263.806 104.017Z" fill="white"/>
<path d="M279.414 108.517C281.486 106.7 282.687 105.418 284.165 104.548C284.452 104.379 286.338 105.687 286.597 106.548C287.229 108.645 286.199 110.181 283.666 110.085C282.591 110.043 281.543 109.333 279.414 108.517Z" fill="white"/>
<path d="M394.997 423.273C392.902 425.063 391.7 426.323 390.206 427.169C389.914 427.334 388.076 426.015 387.819 425.156C387.201 423.06 388.231 421.536 390.772 421.664C391.837 421.718 392.867 422.432 394.997 423.273Z" fill="white"/>
<path d="M410.195 420.654C411.139 422.646 412.101 423.985 412.273 425.405C412.341 425.956 410.607 426.695 409.68 427.35C408.632 425.97 407.481 424.637 406.657 423.148C406.571 422.988 408.392 421.916 410.195 420.654Z" fill="white"/>
<path d="M299.494 107.128C302.029 103.517 304.472 103.342 306.861 107.238C304.301 111.155 301.865 110.913 299.494 107.128Z" fill="white"/>
<path d="M119.589 112.833C120.509 114.87 121.46 116.242 121.613 117.687C121.672 118.24 119.91 118.963 118.977 119.609C117.944 118.208 116.796 116.857 116.016 115.343C115.92 115.153 117.77 114.093 119.589 112.833Z" fill="white"/>
<path d="M134.438 116.968C136.906 113.339 139.184 112.796 141.671 116.195C139.718 118.557 137.307 118.815 134.438 116.968Z" fill="white"/>
<path d="M231.481 116.849C233.762 112.977 236.154 112.758 238.828 116.676C236.545 120.492 234.157 120.77 231.481 116.849Z" fill="white"/>
<path d="M380.743 436.837C376.879 434.55 376.33 432.429 379.919 430.113C382.426 431.922 382.701 434.163 380.743 436.837Z" fill="white"/>
<path d="M270.575 116.886C272.895 113.131 275.275 112.748 277.981 116.642C275.704 120.597 273.3 120.567 270.575 116.886Z" fill="white"/>
<path d="M291.335 121.413C291.378 116.303 293.528 114.285 297.785 115.36C295.835 117.19 294.279 118.652 291.335 121.413Z" fill="white"/>
<path d="M113.667 124.939C112.328 127.679 111.308 129.971 108.289 128.533C107.55 128.181 107.046 126.033 107.48 125.168C108.897 122.346 111.107 123.072 113.667 124.939Z" fill="white"/>
<path d="M150.065 131.288C146.978 128.085 145.597 126.652 142.916 123.871C146.571 124.07 148.87 123.589 149.894 124.44C150.735 125.142 150.065 127.424 150.065 131.288Z" fill="white"/>
<path d="M172.079 124.939C170.068 126.75 168.491 128.168 166.508 129.952C165.312 125.409 167.168 123.738 172.079 124.939Z" fill="white"/>
<path d="M229.845 124.748C227.86 126.639 226.318 128.109 224.393 129.944C223.036 125.487 224.853 123.756 229.845 124.748Z" fill="white"/>
<path d="M246.752 130.537C244.083 128.189 242.585 126.872 239.427 124.094C243.342 124.094 245.851 123.471 246.547 124.253C247.404 125.218 246.752 127.351 246.752 130.537Z" fill="white"/>
<path d="M263.194 129.056C262.24 125.451 263.777 123.894 267.805 124.384C268.017 127.48 266.322 128.828 263.194 129.056Z" fill="white"/>
<path d="M344.818 123.825C344.475 125.57 344.148 127.314 343.53 130.498C340.989 128.149 339.426 126.694 336.833 124.293C340.353 123.732 342.225 123.432 344.097 123.133C344.32 123.384 344.561 123.614 344.818 123.825Z" fill="white"/>
<path d="M394.808 443.493C389.759 444.508 387.876 443.038 389.158 439.084C390.051 439.345 391.116 439.401 391.768 439.913C392.696 440.632 393.331 441.688 394.808 443.493Z" fill="white"/>
<path d="M410.229 445.858C408.426 444.597 406.588 443.53 406.691 443.349C407.481 441.855 408.615 440.525 409.662 439.147C410.59 439.783 412.341 440.509 412.273 441.041C412.101 442.479 411.156 443.836 410.229 445.858Z" fill="white"/>
<path d="M84.189 133.934C82.0046 137.855 79.6675 138.073 76.8856 134.256C79.142 130.565 81.4808 130.384 84.189 133.934Z" fill="white"/>
<path d="M157.82 131.476C162.081 134.222 161.548 136.338 157.942 138.423C153.956 136.373 153.721 134.176 157.82 131.476Z" fill="white"/>
<path d="M254.731 131.482C258.867 134.09 258.566 136.226 254.781 138.46C251.125 136.408 250.358 134.271 254.731 131.482Z" fill="white"/>
<path d="M275.043 131.285C276.731 133.45 277.76 135.519 274.346 136.886C273.453 137.243 271.15 136.636 270.951 136.043C269.929 133.024 272.101 131.934 275.043 131.285Z" fill="white"/>
<path d="M403.669 451.692C401.591 454.765 399.359 455.531 396.8 452.128C398.872 449.473 401.162 449.327 403.669 451.692Z" fill="white"/>
<path d="M352.666 131.222C353.336 131.873 354.005 132.522 354.675 133.173C353.971 135.029 353.267 136.886 352.374 139.261C349.535 136.241 349.632 133.561 352.666 131.222Z" fill="white"/>
<path d="M105.773 143.611C108.425 139.804 110.799 139.979 113.068 143.798C110.399 147.663 108.024 147.447 105.773 143.611Z" fill="white"/>
<path d="M240.622 145.009C242.592 143.239 244.165 141.822 246.198 139.993C247.258 144.662 245.4 146.334 240.622 145.009Z" fill="white"/>
<path d="M306.864 143.798C304.21 147.634 301.816 147.457 299.521 143.622C302.176 139.814 304.574 139.976 306.864 143.798Z" fill="white"/>
<path d="M65.3659 154.284C63.2537 155.186 61.6117 156.229 61.3096 155.958C60.0251 154.817 59.1373 153.287 58.1052 151.899C59.1493 151.381 60.5591 150.195 61.1653 150.484C62.5339 151.133 63.5077 152.511 65.3659 154.284Z" fill="white"/>
<path d="M390.773 456.682C395.049 459.474 394.276 461.58 390.91 463.597C386.754 461.557 386.6 459.35 390.773 456.682Z" fill="white"/>
<path d="M409.387 456.727C413.612 459.316 413.114 461.425 409.387 463.669C406.004 461.578 404.923 459.478 409.387 456.727Z" fill="white"/>
<path d="M98.5555 157.617C97.3901 152.521 99.1109 150.625 103.718 151.929C102.222 153.579 100.929 155.002 98.5555 157.617Z" fill="white"/>
<path d="M274.866 156.945C272.929 155.091 271.399 153.627 269.46 151.771C274.364 150.669 276.166 152.394 274.866 156.945Z" fill="white"/>
<path d="M293.477 149.239C295.112 150.699 296.774 151.886 296.636 152.112C295.762 153.54 294.488 154.753 293.348 156.037C292.505 155.321 290.865 154.462 290.978 153.917C291.27 152.508 292.335 151.239 293.477 149.239Z" fill="white"/>
<path d="M316.899 154.284C314.793 155.183 313.158 156.219 312.856 155.952C311.575 154.812 310.689 153.285 309.658 151.899C310.704 151.381 312.116 150.195 312.72 150.482C314.086 151.133 315.051 152.513 316.899 154.284Z" fill="white"/>
<path d="M347.359 152.751C349.523 151.758 350.914 150.803 352.46 150.567C353.026 150.479 353.902 152.062 354.641 152.883C353.215 153.92 351.842 155.069 350.279 155.865C350.056 155.976 348.836 154.348 347.359 152.751Z" fill="white"/>
<path d="M71.1977 158.446C75.4926 161.228 74.7849 163.34 71.3658 165.369C67.2134 163.338 67.0574 161.13 71.1977 158.446Z" fill="white"/>
<path d="M283.656 165.47C280.774 163.646 279.074 161.8 282.323 159.466C282.934 159.027 284.803 159.312 285.476 159.889C288.088 162.131 286.23 163.681 283.656 165.47Z" fill="white"/>
<path d="M322.693 165.386C318.539 162.915 318.699 160.681 322.866 158.55C326.959 161.013 326.804 163.247 322.693 165.386Z" fill="white"/>
<path d="M46.7197 171.656C42.7683 173.968 40.512 174.516 39.4817 171.734C39.1193 170.755 40.395 169.247 40.9239 167.981C42.5605 169.018 44.1954 170.056 46.7197 171.656Z" fill="white"/>
<path d="M293.373 166.862C294.845 168.999 295.805 170.395 296.765 171.79C295.475 172.361 293.959 173.604 292.96 173.311C291.976 173.023 291.136 171.221 290.969 169.997C290.869 169.257 292.171 168.35 293.373 166.862Z" fill="white"/>
<path d="M308.604 171.989C310.584 170.2 312.156 168.781 314.168 166.962C315.292 171.588 313.437 173.264 308.604 171.989Z" fill="white"/>
<path d="M299.48 180.254C301.972 176.322 304.431 176.386 306.892 180.223C304.411 184.087 301.949 184.021 299.48 180.254Z" fill="white"/>
<path d="M322.326 184.035C321.099 182.58 319.752 181.68 319.84 180.928C319.986 179.696 320.832 177.862 321.815 177.576C322.842 177.277 324.382 178.508 325.687 179.071C324.725 180.487 323.764 181.904 322.326 184.035Z" fill="white"/>
<path d="M341.95 184.09C340.456 181.944 339.494 180.544 338.516 179.141C339.803 178.551 341.315 177.281 342.328 177.563C343.307 177.837 344.166 179.657 344.337 180.886C344.423 181.646 343.135 182.571 341.95 184.09Z" fill="white"/>
<path d="M394.997 477.237C392.902 479.019 391.665 480.275 390.188 481.118C389.896 481.28 388.042 479.947 387.801 479.086C387.218 477.003 388.196 475.419 390.755 475.543C391.837 475.596 392.867 476.354 394.997 477.237Z" fill="white"/>
<path d="M404.734 477.051C410.217 475.9 412.261 477.495 410.864 481.834C409.079 480.446 407.55 479.249 404.734 477.051Z" fill="white"/>
<path d="M401.127 492.49C398.517 489.779 397.143 488.344 395.512 486.655C399.771 485.511 401.642 487.456 401.127 492.49Z" fill="white"/>
<path d="M371.831 492.155C373.067 496.732 371.235 498.445 366.335 497.294C368.31 495.451 369.873 493.995 371.831 492.155Z" fill="white"/>
<path d="M394.842 496.307C393.262 497.424 392.301 498.646 391.493 498.558C390.188 498.416 388.213 497.633 387.921 496.734C387.63 495.763 388.935 494.346 389.553 493.126C391.047 494.029 392.558 494.931 394.842 496.307Z" fill="white"/>
<path d="M405.455 497.213C407.464 495.403 409.027 493.982 411.019 492.186C412.221 496.773 410.367 498.449 405.455 497.213Z" fill="white"/>
<path d="M351.412 185.351C355.276 187.585 355.963 189.676 352.271 191.999C349.729 190.221 349.443 188.005 351.412 185.351Z" fill="white"/>
<path d="M327.473 199.016C321.968 200.166 319.905 198.583 321.284 194.268C323.067 195.636 324.605 196.822 327.473 199.016Z" fill="white"/>
<path d="M342.894 193.25C344.119 198.367 342.419 200.272 337.794 198.967C339.271 197.314 340.542 195.883 342.894 193.25Z" fill="white"/>
<path d="M395.014 205.947C392.902 207.736 391.682 208.994 390.188 209.835C389.896 210.001 388.042 208.677 387.802 207.823C387.218 205.744 388.214 204.162 390.772 204.281C391.837 204.331 392.867 205.076 395.014 205.947Z" fill="white"/>
<path d="M380.555 212.44C384.608 214.768 384.625 217.061 380.503 219.34C376.416 217.002 376.451 214.711 380.555 212.44Z" fill="white"/>
<path d="M360.119 221.326C359.363 216.279 361.161 214.24 365.511 215.21C363.966 216.967 362.643 218.459 360.119 221.326Z" fill="white"/>
<path d="M389.416 220.244C391.683 222.935 392.936 224.414 394.379 226.132C389.685 227.197 388.031 225.234 389.416 220.244Z" fill="white"/>
<path d="M357.062 233.897C359.821 232.23 362.357 232.285 364.67 234.063C362.368 237.736 360.016 238.083 357.062 233.897Z" fill="white"/>
<path d="M396.371 505.424C399.17 501.485 401.437 501.956 403.755 505.372C401.574 508.783 399.307 509.559 396.371 505.424Z" fill="white"/>
<path d="M403.823 234.095C401.866 236.823 399.891 238.38 397.418 235.347C396.954 234.778 397.264 233.042 397.882 232.417C400.286 229.991 401.935 231.741 403.823 234.095Z" fill="white"/>
<path d="M355.791 243.158C353.49 244.565 351.996 245.483 350.502 246.398C349.867 245.203 348.476 243.792 348.785 242.868C349.094 241.934 351.017 241.118 352.34 240.95C353.147 240.845 354.16 242.055 355.791 243.158Z" fill="white"/>
<path d="M394.997 242.46C392.902 244.241 391.683 245.499 390.189 246.349C389.914 246.51 388.059 245.18 387.819 244.316C387.201 242.223 388.231 240.677 390.755 240.799C391.837 240.85 392.868 241.594 394.997 242.46Z" fill="white"/>
<path d="M410.212 239.776C411.139 241.789 412.118 243.14 412.273 244.571C412.341 245.135 410.59 245.876 409.68 246.534C408.615 245.146 407.464 243.807 406.674 242.302C406.571 242.122 408.409 241.047 410.212 239.776Z" fill="white"/>
<path d="M372.518 519.163C369.856 516.833 368.345 515.514 365.168 512.732C369.1 512.732 371.625 512.107 372.312 512.892C373.188 513.852 372.518 515.993 372.518 519.163Z" fill="white"/>
<path d="M394.859 514.469C392.575 515.851 391.064 516.756 389.57 517.661C388.952 516.456 387.613 515.038 387.939 514.107C388.248 513.186 390.171 512.399 391.494 512.243C392.283 512.15 393.279 513.36 394.859 514.469Z" fill="white"/>
<path d="M409.868 510.965C410.984 512.953 412.032 514.234 412.307 515.649C412.41 516.181 410.744 517.024 409.885 517.723C408.735 516.422 407.481 515.179 406.588 513.742C406.485 513.553 408.185 512.37 409.868 510.965Z" fill="white"/>
<path d="M366.782 253.19C361.39 253.862 359.209 252.181 360.239 248.147C362.111 249.594 363.708 250.821 366.782 253.19Z" fill="white"/>
<path d="M395.134 251.363C396.852 250.555 398.586 249.746 401.11 248.57C401.351 250.268 402.347 252.589 401.642 253.201C400.561 254.126 398.311 253.86 396.559 254.1C396.078 253.187 395.615 252.275 395.134 251.363Z" fill="white"/>
<path d="M389.845 264.97C388.969 262.945 388.041 261.571 387.921 260.137C387.87 259.587 389.638 258.898 390.583 258.275C391.596 259.68 392.712 261.044 393.502 262.557C393.571 262.716 391.717 263.751 389.845 264.97Z" fill="white"/>
<path d="M380.623 520.237C384.693 522.675 384.573 524.926 380.417 527.078C376.416 524.646 376.433 522.391 380.623 520.237Z" fill="white"/>
<path d="M405.455 262.584C407.396 260.717 408.924 259.251 410.847 257.392C412.21 261.973 410.412 263.704 405.455 262.584Z" fill="white"/>
<path d="M365.924 270.2C363.64 271.568 362.145 272.47 360.651 273.371C360.05 272.156 358.745 270.74 359.072 269.785C359.364 268.874 361.304 268.086 362.609 267.94C363.399 267.852 364.361 269.081 365.924 270.2Z" fill="white"/>
<path d="M403.738 270.762C401.076 274.616 398.723 274.19 396.405 270.631C399.135 266.642 401.505 266.953 403.738 270.762Z" fill="white"/>
<path d="M390.978 276.019C392.798 278.092 392.953 280.223 391.442 282.411C388.591 280.476 388.437 278.346 390.978 276.019Z" fill="white"/>
<path d="M409.473 275.93C413.577 278.384 413.509 280.619 409.302 282.737C405.249 280.313 405.403 278.081 409.473 275.93Z" fill="white"/>
<path d="M367.04 289.668C361.796 290.379 359.335 289.052 359.655 285.685C363.399 284.288 363.536 287.482 367.04 289.668Z" fill="white"/>
<path d="M388.231 302.21C388.277 297.157 390.435 295.157 394.705 296.208C392.73 298.04 391.167 299.49 388.231 302.21Z" fill="white"/>
<path d="M380.469 302.806C383.491 304.66 384.985 306.556 381.808 308.852C381.224 309.282 379.353 308.961 378.683 308.375C376.107 306.118 377.962 304.565 380.469 302.806Z" fill="white"/>
<path d="M367.4 316.402C367.366 316.099 367.211 315.737 367.331 315.501C368.345 313.567 369.495 311.339 372.243 312.723C373.067 313.131 373.204 315.421 372.964 316.74C372.741 317.912 371.539 317.795 367.4 316.402Z" fill="white"/>
<path d="M394.361 316.232C391.494 318.118 389.261 319.067 387.836 315.865C387.458 315.025 388.059 312.944 388.763 312.695C392.352 311.384 392.747 314.278 394.361 316.232Z" fill="white"/>
<path d="M410.469 310.915C412.942 314.612 413.543 316.721 410.538 317.666C409.474 318 407.876 316.811 406.52 316.316C407.636 314.79 408.752 313.266 410.469 310.915Z" fill="white"/>
<path d="M396.405 324.532C398.895 320.697 401.35 320.705 403.772 324.577C401.282 328.418 398.826 328.412 396.405 324.532Z" fill="white"/>
<path d="M365.924 332.897C370.045 330.931 372.363 330.23 373.188 333.229C373.445 334.24 372.106 335.633 371.487 336.849C369.89 335.718 368.311 334.586 365.924 332.897Z" fill="white"/>
<path d="M390.892 338.027C386.908 335.173 386.806 333.122 389.004 331.636C389.879 331.046 391.906 331.96 393.417 332.187C392.679 333.904 391.94 335.62 390.892 338.027Z" fill="white"/>
<path d="M390.257 347.684C391.734 349.83 392.695 351.227 393.657 352.626C392.369 353.205 390.858 354.465 389.845 354.171C388.866 353.883 388.007 352.074 387.853 350.843C387.75 350.096 389.055 349.181 390.257 347.684Z" fill="white"/>
<path d="M89.5743 122.55C91.0202 123.695 92.7321 124.868 92.6411 125.006C91.7602 126.343 90.579 127.505 89.4816 128.716C88.5887 127.851 86.9573 126.96 86.9917 126.126C87.0345 125.059 88.4186 124.04 89.5743 122.55Z" fill="white"/>
<path d="M173.075 116.742C174.992 115.487 176.458 114.525 178.914 112.916V120.662C176.412 118.98 174.961 118.006 173.075 116.742Z" fill="white"/>
<path d="M46.2714 187.414C44.6708 189.715 43.692 191.12 42.2976 193.124C40.9513 191.074 40.0101 189.643 38.5453 187.414H46.2714Z" fill="white"/>
<path d="M125.642 108.676C126.581 107.277 127.526 105.871 128.994 103.681C130.229 105.815 132.101 107.663 131.675 108.58C130.481 111.147 128.154 110.437 125.642 108.676Z" fill="white"/>
<path d="M330.204 174.768C330.513 171.63 330.685 169.96 330.856 168.289C332.574 168.806 334.274 169.325 337.039 170.165C334.497 171.878 333.003 172.875 330.204 174.768Z" fill="white"/>
<path d="M384.95 254.123C381.533 253.842 379.764 253.694 377.979 253.547C378.511 251.981 379.061 250.414 379.971 247.781C381.825 250.143 382.89 251.502 384.95 254.123Z" fill="white"/>
<path d="M337.829 206.762C334.257 208.811 332.917 209.577 330.376 211.037C330.565 208.157 330.668 206.504 330.771 204.85C332.454 205.305 334.137 205.76 337.829 206.762Z" fill="white"/>
<path d="M383.972 396.536C382.89 397.81 381.808 399.084 380.331 400.824C379.06 398.914 378.116 397.507 376.691 395.363C379.387 395.093 381.121 394.919 382.855 394.746C383.233 395.342 383.594 395.938 383.972 396.536Z" fill="white"/>
<path d="M409.559 337.665C408.031 335.567 407.035 334.186 405.472 332.046C408.185 331.692 409.903 331.469 413.148 331.046C411.654 333.823 410.778 335.418 409.559 337.665Z" fill="white"/>
<path d="M357.474 344.519C359.569 341.907 360.634 340.559 362.523 338.22C363.365 340.851 363.88 342.415 364.378 343.979C362.626 344.117 360.857 344.255 357.474 344.519Z" fill="white"/>
<path d="M410.555 402.909C411.036 404.422 411.517 405.935 411.998 407.449C410.263 407.42 408.512 407.392 406.777 407.364C407.31 405.848 407.825 404.331 408.357 402.815C409.096 402.847 409.817 402.877 410.555 402.909Z" fill="white"/>
<path d="M380.555 338.595C381.894 340.609 382.856 342.053 384.401 344.351H376.605C378.185 342.029 379.181 340.588 380.555 338.595Z" fill="white"/>
<path d="M330.444 149.707C332.866 151.09 334.411 151.976 336.61 153.239C334.446 154.542 332.917 155.458 330.444 156.952V149.707Z" fill="white"/>
<path d="M254.726 156.535C253.384 154.716 252.367 153.343 250.648 151.014H258.941C257.134 153.381 256.098 154.737 254.726 156.535Z" fill="white"/>
<path d="M74.7867 153.782C78.3534 151.668 79.6671 150.889 82.2121 149.381C82.0472 152.272 81.9531 153.905 81.8604 155.538C80.1654 155.119 78.4719 154.697 74.7867 153.782Z" fill="white"/>
<path d="M337.88 143.686C339.838 142.437 341.315 141.493 343.805 139.913V147.581C341.263 145.912 339.804 144.95 337.88 143.686Z" fill="white"/>
<path d="M262.669 139.908C265.025 141.332 266.347 142.13 268.392 143.365C266.818 144.658 265.823 146.094 264.53 146.391C262.608 146.833 262.334 146.032 262.669 139.908Z" fill="white"/>
<path d="M391.288 194.297C389.038 190.965 388.213 189.728 386.599 187.338C389.707 187.513 391.476 187.611 393.228 187.71C392.764 189.274 392.318 190.84 391.288 194.297Z" fill="white"/>
<path d="M316.912 187.21C314.855 189.818 313.785 191.175 311.927 193.529C311.036 190.893 310.505 189.324 309.974 187.757C311.754 187.616 313.533 187.476 316.912 187.21Z" fill="white"/>
<path d="M129.49 130.863C127.248 127.508 126.418 126.267 124.825 123.884C127.918 124.043 129.676 124.133 131.436 124.222C130.976 125.79 130.517 127.357 129.49 130.863Z" fill="white"/>
<path d="M330.29 130.383C332.831 131.742 334.205 132.471 335.442 133.138C335.27 134.061 335.339 134.945 335.029 135.088C333.69 135.7 332.23 136.091 330.822 136.562C330.685 134.891 330.53 133.219 330.29 130.383Z" fill="white"/>
<path d="M370.886 194.308C368.585 191.042 367.726 189.816 366.198 187.635H372.689C372.26 189.186 371.848 190.737 370.886 194.308Z" fill="white"/>
<path d="M172.493 133.577C175.307 132.771 176.985 132.29 178.663 131.811C178.816 133.477 178.971 135.142 179.261 138.274C176.455 136.325 175.008 135.322 172.493 133.577Z" fill="white"/>
<path d="M322.73 129.543C321.393 127.729 320.38 126.355 318.697 124.073H326.975C325.155 126.42 324.108 127.763 322.73 129.543Z" fill="white"/>
<path d="M380.829 492.504C378.734 489.124 377.944 487.858 376.45 485.468C379.507 485.708 381.293 485.847 383.079 485.985C382.529 487.551 381.997 489.116 380.829 492.504Z" fill="white"/>
<path d="M282.556 128.891C282.043 127.376 281.528 125.865 281.014 124.351C282.758 124.341 284.5 124.331 286.242 124.322C285.749 125.833 285.254 127.342 284.76 128.854C284.025 128.867 283.291 128.878 282.556 128.891Z" fill="white"/>
<path d="M186.64 122.277C188.074 123.98 189.801 125.269 189.561 125.915C189.135 127.054 187.626 128.165 186.324 128.541C185.769 128.702 183.863 126.971 183.88 126.123C183.903 125.073 185.283 124.048 186.64 122.277Z" fill="white"/>
<path d="M336.386 189.92C335.167 190.84 333.862 192.041 333.69 191.916C332.385 190.941 331.286 189.71 330.135 188.56C330.839 188.061 331.818 187.002 332.196 187.167C333.553 187.763 334.703 188.768 336.386 189.92Z" fill="white"/>
<path d="M82.5522 365.031C82.3478 368.814 82.2243 371.066 82.0834 373.683C77.4662 371.289 77.6224 368.405 82.5522 365.031Z" fill="white"/>
<path d="M60.5142 392.004C59.2967 390.19 58.014 389.116 57.9127 387.953C57.7084 385.618 59.6178 384.59 61.7317 385.307C62.7896 385.666 63.9608 387.467 63.8749 388.533C63.7942 389.536 62.1319 390.429 60.5142 392.004Z" fill="white"/>
<path d="M99.6412 392.013C98.4254 390.209 97.1647 389.148 97.0376 387.978C96.7818 385.632 98.6384 384.577 100.783 385.303C101.863 385.67 103.091 387.438 103.012 388.491C102.933 389.505 101.262 390.417 99.6412 392.013Z" fill="white"/>
<path d="M134.518 405.478C137.759 400.952 140.065 402.649 142.674 406.13C139.834 409.223 137.41 409.013 134.518 405.478Z" fill="white"/>
<path d="M36.3644 415.053C34.5526 416.336 33.5106 417.635 32.2674 417.832C29.803 418.223 28.4992 416.587 29.1364 414.518C29.4523 413.491 31.2592 412.226 32.3806 412.234C33.4899 412.242 34.5887 413.717 36.3644 415.053Z" fill="white"/>
<path d="M133.257 414.638C131.538 416.108 130.536 417.651 129.437 417.714C128.312 417.778 126.428 416.606 126.054 415.597C125.305 413.579 126.482 411.85 128.975 412.098C130.226 412.223 131.349 413.457 133.257 414.638Z" fill="white"/>
<path d="M13.657 436.587C10.0542 435.243 9.81022 432.881 10.9763 429.847C15.3256 431.306 16.2192 433.553 13.657 436.587Z" fill="white"/>
<path d="M91.7466 429.691C94.2865 432.698 93.0415 434.847 89.9899 436.616C87.2148 433.871 87.8003 431.562 91.7466 429.691Z" fill="white"/>
<path d="M147.457 436.881C145.339 433.946 145.948 431.533 149.284 429.643C152.03 432.458 150.871 434.581 147.457 436.881Z" fill="white"/>
<path d="M65.2233 441.238C63.604 442.871 62.8226 444.353 61.6618 444.687C59.4722 445.315 57.6018 444.222 57.9367 441.94C58.0946 440.86 59.6405 439.381 60.7859 439.172C61.8472 438.977 63.2124 440.231 65.2233 441.238Z" fill="white"/>
<path d="M100.13 437.935C101.53 439.642 102.935 440.61 103.149 441.77C103.577 444.076 101.796 445.275 99.5911 444.699C98.5024 444.416 97.1699 442.724 97.1699 441.667C97.168 440.637 98.7203 439.603 100.13 437.935Z" fill="white"/>
<path d="M140.96 445.188C138.757 444.414 136.554 443.64 133.911 442.711C137.373 439.684 139.723 440.51 140.96 445.188Z" fill="white"/>
<path d="M142.375 497.469C138.84 499.676 136.535 498.891 135.104 496.266C134.819 495.743 135.977 494.062 136.88 493.549C138.771 492.479 138.884 492.654 142.375 497.469Z" fill="white"/>
<path d="M36.3527 451.929C34.4019 453.063 33.246 454.256 31.9941 454.35C29.4714 454.541 28.4172 452.725 29.1763 450.77C29.5575 449.789 31.501 448.709 32.6448 448.791C33.7198 448.87 34.6714 450.421 36.3527 451.929Z" fill="white"/>
<path d="M133.255 451.746C131.366 452.959 130.267 454.206 129.022 454.35C126.523 454.639 125.36 452.891 126.042 450.892C126.381 449.898 128.266 448.737 129.399 448.785C130.493 448.83 131.517 450.328 133.255 451.746Z" fill="white"/>
<path d="M25.0013 457.18C24.481 459.278 23.9625 461.376 23.279 464.14C21.493 463.164 20.5174 462.919 20.0348 462.323C16.9541 458.53 20.7204 457.866 22.4187 456.262C23.2791 456.567 24.1392 456.873 25.0013 457.18Z" fill="white"/>
<path d="M42.6105 463.796C39.0471 461.693 38.0234 459.527 40.5478 456.628C44.0006 458.422 44.6883 460.812 42.6105 463.796Z" fill="white"/>
<path d="M82.5472 457.056C82.3531 459.291 82.161 461.527 81.7695 466.065C79.1352 462.54 77.9191 460.911 76.5334 459.057C78.0154 457.937 79.262 456.993 80.5071 456.051C81.1871 456.386 81.8672 456.721 82.5472 457.056Z" fill="white"/>
<path d="M137.488 456.536C140.902 458.496 141.586 460.855 139.542 463.611C135.934 461.948 134.917 459.8 137.488 456.536Z" fill="white"/>
<path d="M36.2531 470.185C34.0653 470.89 32.702 471.736 31.3985 471.664C28.6011 471.509 28.4499 469.27 29.3102 467.661C29.7962 466.752 32.0766 465.982 33.2135 466.276C34.2713 466.551 34.8879 468.316 36.2531 470.185Z" fill="white"/>
<path d="M55.2616 468.746C53.6954 471.897 51.2963 472.552 48.0059 471.052C49.6328 467.058 52.0515 466.289 55.2616 468.746Z" fill="white"/>
<path d="M133.253 468.576C131.54 470.022 130.538 471.54 129.448 471.597C128.314 471.656 126.413 470.522 126.053 469.528C125.328 467.527 126.501 465.785 128.981 466.022C130.224 466.142 131.347 467.386 133.253 468.576Z" fill="white"/>
<path d="M69.3122 429.147C72.9105 431.64 73.6004 434.126 71.3817 436.605C67.9678 435.159 67.2532 432.929 69.3122 429.147Z" fill="white"/>
<path d="M142.846 476.959C139.972 480.17 137.257 480.629 134.701 478.338C136.543 475.298 138.978 474.657 142.846 476.959Z" fill="white"/>
<path d="M32.4093 501.416C33.692 503.187 35.0265 504.224 35.1621 505.386C35.4335 507.692 33.5945 508.825 31.4324 508.152C30.3574 507.819 29.1278 506.049 29.1793 504.98C29.2274 503.969 30.862 503.025 32.4093 501.416Z" fill="white"/>
<path d="M55.524 505.564C52.3665 507.595 49.7964 507.001 47.8135 503.783C50.8788 501.286 53.1748 502.357 55.524 505.564Z" fill="white"/>
<path d="M75.4943 505.846C73.5366 506.977 72.3789 508.165 71.1202 508.264C68.5854 508.466 67.5483 506.647 68.3074 504.692C68.6902 503.706 70.6224 502.607 71.7507 502.695C72.8394 502.78 73.7959 504.33 75.4943 505.846Z" fill="white"/>
<path d="M128.539 509.378C127.316 507.577 126.035 506.511 125.922 505.347C125.692 503.014 127.57 501.966 129.7 502.682C130.766 503.043 131.973 504.825 131.887 505.878C131.805 506.892 130.145 507.798 128.539 509.378Z" fill="white"/>
<path d="M71.3898 527.032C67.9878 525.583 67.2839 523.348 68.8982 520.271C73.2074 521.786 74.0378 524.039 71.3898 527.032Z" fill="white"/>
<path d="M91.8859 519.549C93.7113 523.367 93.1704 525.644 89.6483 527.014C87.4547 524.489 88.2006 522 91.8859 519.549Z" fill="white"/>
<path d="M127.158 519.488C130.711 522.076 131.326 524.614 129.003 527.102C125.826 525.452 124.931 523.226 127.158 519.488Z" fill="white"/>
<path d="M55.2271 378.614C53.3793 381.628 50.9442 382.172 47.7673 380.364C49.8714 376.61 52.3581 376.026 55.2271 378.614Z" fill="white"/>
<path d="M61.076 474.448C62.4378 476.15 63.9763 477.227 63.9299 478.242C63.8837 479.317 62.5066 480.969 61.3938 481.24C59.1167 481.796 57.4747 480.464 57.9693 478.197C58.2184 477.051 59.6283 476.125 61.076 474.448Z" fill="white"/>
<path d="M101.154 365.917C102.227 368.298 105.389 370.793 100.551 372.744C97.6729 370.722 97.8779 368.449 101.166 365.925L101.154 365.917Z" fill="white"/>
<path d="M75.9236 379.871C70.4433 380.999 68.386 379.416 69.7518 375.122C71.5291 376.489 73.0729 377.675 75.9236 379.871Z" fill="white"/>
<path d="M85.8956 379.801C87.9049 378.002 89.4849 376.587 91.4889 374.792C92.6509 379.393 90.7864 381.063 85.8956 379.801Z" fill="white"/>
<path d="M113.19 378.343C110.386 382.318 108.138 381.97 105.807 378.542C107.918 374.991 110.216 374.675 113.19 378.343Z" fill="white"/>
<path d="M41.8923 391.834C40.6713 390.385 39.3442 389.499 39.43 388.76C39.576 387.52 40.3797 385.686 41.3619 385.38C42.3649 385.068 43.9172 386.297 45.2292 386.853C44.2795 388.27 43.3314 389.686 41.8923 391.834Z" fill="white"/>
<path d="M84.2834 388.016C82.3463 390.654 80.4009 392.335 77.8885 389.26C77.4145 388.683 77.7064 386.946 78.3195 386.316C80.7115 383.862 82.3652 385.6 84.2834 388.016Z" fill="white"/>
<path d="M120.123 392.43C117.832 389.706 116.589 388.226 115.151 386.518C119.809 385.391 121.466 387.362 120.123 392.43Z" fill="white"/>
<path d="M71.4329 393.393C74.7026 395.343 75.5562 397.441 71.8932 399.823C69.0459 397.856 68.8924 395.712 71.4329 393.393Z" fill="white"/>
<path d="M51.9522 400.765C50.4702 399.702 48.9863 398.64 46.3073 396.72C48.9932 395.851 50.9492 394.529 52.0603 394.989C55.0604 396.228 54.286 398.361 51.9522 400.765Z" fill="white"/>
<path d="M108.552 400.345C107.582 396.733 109.11 395.166 113.135 395.645C113.324 398.707 111.701 400.114 108.552 400.345Z" fill="white"/>
<path d="M23.365 401.104C24.551 406.152 22.8447 408.046 18.2458 406.787C19.7329 405.137 21.0174 403.71 23.365 401.104Z" fill="white"/>
<path d="M45.1998 407.106C43.0841 408.725 40.8107 409.412 39.5004 406.577C39.0814 405.67 40.412 402.952 41.0869 402.907C43.8672 402.715 45.3131 404.38 45.1998 407.106Z" fill="white"/>
<path d="M84.1872 405.303C81.9118 409.116 79.5282 409.394 76.911 405.454C79.2293 401.683 81.6233 401.668 84.1872 405.303Z" fill="white"/>
<path d="M99.6338 401.63C101.088 403.757 102.048 405.161 103.008 406.565C101.705 407.126 100.192 408.344 99.1583 408.058C98.1898 407.789 97.3397 405.967 97.192 404.749C97.1009 403.997 98.4214 403.098 99.6338 401.63Z" fill="white"/>
<path d="M120.31 401.758C121.538 406.306 119.69 408.003 114.765 406.848C116.767 405.01 118.339 403.569 120.31 401.758Z" fill="white"/>
<path d="M47.882 415.001C50.6744 411.1 52.9532 411.448 55.3352 414.954C53.1439 418.355 50.8649 419.129 47.882 415.001Z" fill="white"/>
<path d="M75.8806 413.704C73.0161 415.834 71.44 417.005 69.6077 418.369C68.3987 413.952 70.4894 412.397 75.8806 413.704Z" fill="white"/>
<path d="M94.369 414.356C92.2877 415.997 91.1664 417.26 89.7308 417.821C89.1778 418.039 87.9069 416.661 86.9641 416.009C88.1285 414.734 89.1675 413.311 90.5517 412.298C90.8693 412.066 92.3734 413.25 94.369 414.356Z" fill="white"/>
<path d="M105.716 414.981C108.224 411.092 110.676 411.18 113.121 414.972C110.601 418.93 108.15 418.752 105.716 414.981Z" fill="white"/>
<path d="M22.7568 427.669C21.3521 426.462 19.8889 425.203 17.1635 422.86C20.4659 422.413 22.6383 421.47 23.6394 422.113C25.8496 423.536 25.702 425.629 22.7568 427.669Z" fill="white"/>
<path d="M40.555 429.106C39.8223 424.072 41.6337 422.039 45.9898 423.009C44.4254 424.762 43.1 426.25 40.555 429.106Z" fill="white"/>
<path d="M100.24 428.435C96.2406 425.579 96.1429 423.537 98.3325 422.061C99.2014 421.475 101.233 422.39 102.734 422.621C102.002 424.326 101.272 426.028 100.24 428.435Z" fill="white"/>
<path d="M114.025 422.871C119.662 422.094 121.623 423.763 119.907 427.876C118.219 426.438 116.736 425.179 114.025 422.871Z" fill="white"/>
<path d="M144.39 422.292C141.139 425.101 139.626 426.409 136.66 428.97C136.829 425.534 136.276 423.363 137.179 422.457C137.969 421.666 140.397 422.292 144.39 422.292Z" fill="white"/>
<path d="M32.1745 436.654C28.0994 434.528 27.9518 432.302 32.0492 429.738C35.8649 431.908 36.3767 434.114 32.1745 436.654Z" fill="white"/>
<path d="M52.2734 428.682C53.5109 433.246 51.6783 434.962 46.7761 433.831C48.7493 431.983 50.3072 430.523 52.2734 428.682Z" fill="white"/>
<path d="M114.447 434.144C109.57 434.753 107.614 433.209 108.578 429.514C109.517 429.788 110.635 429.844 111.32 430.381C112.275 431.129 112.907 432.236 114.447 434.144Z" fill="white"/>
<path d="M129.084 436.639C124.889 434.48 124.87 432.219 128.912 429.765C132.944 431.958 133.193 434.211 129.084 436.639Z" fill="white"/>
<path d="M46.2353 443.259C41.4418 444.547 39.5877 442.866 40.6731 438.215C42.7012 440.054 44.2725 441.48 46.2353 443.259Z" fill="white"/>
<path d="M84.158 441.815C81.9049 445.704 79.5264 445.874 76.9007 442.007C79.1795 438.172 81.5598 438.055 84.158 441.815Z" fill="white"/>
<path d="M114.058 443.222C116.946 441.089 118.526 439.921 120.36 438.568C121.541 442.937 119.441 444.488 114.058 443.222Z" fill="white"/>
<path d="M52.1959 455.175C50.257 453.315 48.727 451.848 46.79 449.989C51.6957 448.89 53.4976 450.619 52.1959 455.175Z" fill="white"/>
<path d="M70.7406 455.289C69.5334 453.833 68.2095 452.932 68.3056 452.193C68.4653 450.961 69.3018 449.136 70.2841 448.852C71.3058 448.555 72.8356 449.788 74.1459 450.35C73.1774 451.754 72.2107 453.158 70.7406 455.289Z" fill="white"/>
<path d="M91.2827 455.151C89.3645 453.31 87.8398 451.847 85.889 449.974C90.8554 448.891 92.6531 450.617 91.2827 455.151Z" fill="white"/>
<path d="M113.14 451.53C110.152 455.536 107.915 454.738 105.785 451.613C107.995 447.785 110.357 447.514 113.14 451.53Z" fill="white"/>
<path d="M142.485 449.866C147.709 449.164 150.162 450.492 149.844 453.849C146.121 455.227 145.952 452.076 142.485 449.866Z" fill="white"/>
<path d="M60.995 463.708C56.7069 460.924 57.4146 458.82 60.9161 456.759C64.8676 458.852 65.1198 461.057 60.995 463.708Z" fill="white"/>
<path d="M100.103 463.639C96.031 461.333 95.9332 459.04 100.115 456.748C104.207 459.06 104.181 461.35 100.103 463.639Z" fill="white"/>
<path d="M118.696 463.668C114.363 460.868 115.394 458.785 118.56 456.759C122.74 458.865 123.006 461.076 118.696 463.668Z" fill="white"/>
<path d="M69.7981 465.243C71.718 467.083 73.2449 468.546 75.2024 470.421C70.2224 471.493 68.4209 469.767 69.7981 465.243Z" fill="white"/>
<path d="M92.3511 464.36C92.3786 469.374 90.2273 471.348 85.8975 470.283C87.8878 468.454 89.4558 467.017 92.3511 464.36Z" fill="white"/>
<path d="M105.727 468.854C108.248 465.097 110.679 465.163 113.104 468.86C110.538 472.865 108.112 472.551 105.727 468.854Z" fill="white"/>
<path d="M142.992 470.166C145.861 468.044 147.439 466.881 149.273 465.525C150.408 469.888 148.314 471.435 142.992 470.166Z" fill="white"/>
<path d="M41.9575 474.383C43.582 475.876 45.2391 477.073 45.0915 477.315C44.2209 478.75 42.9311 479.961 41.7806 481.245C40.9443 480.521 39.3076 479.65 39.4227 479.099C39.7181 477.686 40.7931 476.413 41.9575 474.383Z" fill="white"/>
<path d="M84.2217 478.415C81.9223 482.125 79.5522 482.419 76.9007 478.557C79.1435 474.657 81.5222 474.496 84.2217 478.415Z" fill="white"/>
<path d="M104.008 477.158C102.028 478.942 100.455 480.36 98.4284 482.184C97.3076 477.505 99.1674 475.83 104.008 477.158Z" fill="white"/>
<path d="M119.276 474.444C120.349 476.456 121.38 477.766 121.634 479.192C121.73 479.733 120.037 480.552 119.161 481.243C118.043 479.916 116.805 478.65 115.944 477.192C115.826 476.99 117.567 475.833 119.276 474.444Z" fill="white"/>
<path d="M16.8306 486.835C15.6989 488.219 14.574 489.594 12.5374 492.088C11.6083 489.615 10.2003 487.811 10.6847 486.783C11.9915 484.005 14.2667 484.735 16.8306 486.835Z" fill="white"/>
<path d="M24.3178 491.298C24.3591 496.315 22.2229 498.301 17.9091 497.258C19.8822 495.423 21.4431 493.971 24.3178 491.298Z" fill="white"/>
<path d="M46.9684 497.272C41.5396 498.363 39.512 496.764 40.8859 492.475C42.6512 493.868 44.1779 495.072 46.9684 497.272Z" fill="white"/>
<path d="M61.8382 499.726C60.0111 498.501 58.1618 497.455 58.2477 497.29C59.0359 495.785 60.1606 494.434 61.1858 493.038C62.12 493.673 63.8855 494.386 63.8288 494.929C63.676 496.367 62.7347 497.732 61.8382 499.726Z" fill="white"/>
<path d="M76.9576 495.66C79.0183 492.622 81.2488 491.785 83.804 495.202C81.7387 497.862 79.4568 498.015 76.9576 495.66Z" fill="white"/>
<path d="M104.178 496.274C102.615 497.405 101.657 498.64 100.852 498.559C99.531 498.424 97.546 497.653 97.2539 496.75C96.9397 495.78 98.2536 494.35 98.8563 493.123C100.371 494.017 101.884 494.915 104.178 496.274Z" fill="white"/>
<path d="M114.052 497.102C116.949 494.987 118.533 493.831 120.365 492.493C121.561 496.86 119.457 498.396 114.052 497.102Z" fill="white"/>
<path d="M85.7931 503.86C90.8648 502.818 92.7565 504.286 91.4686 508.264C90.579 508.008 89.509 507.955 88.8478 507.445C87.9187 506.729 87.2939 505.671 85.7931 503.86Z" fill="white"/>
<path d="M105.718 505.423C108.519 501.474 110.769 501.947 113.094 505.373C110.899 508.764 108.631 509.559 105.718 505.423Z" fill="white"/>
<path d="M23.1314 518.101C21.5944 516.947 20.0382 515.779 17.1516 513.614C20.3131 512.913 22.3809 511.798 23.4387 512.354C25.9133 513.655 25.5047 515.784 23.1314 518.101Z" fill="white"/>
<path d="M45.6583 513.569C44.3514 516.359 43.2971 518.614 40.2696 517.2C39.5328 516.856 39.0242 514.695 39.457 513.824C40.8686 510.982 43.0858 511.684 45.6583 513.569Z" fill="white"/>
<path d="M56.2644 513.583C61.7196 512.449 63.7958 514.021 62.4929 518.299C60.7035 516.945 59.1511 515.767 56.2644 513.583Z" fill="white"/>
<path d="M98.6844 518.604C97.29 514.114 99.0887 512.386 104.08 513.421C102.114 515.309 100.591 516.772 98.6844 518.604Z" fill="white"/>
<path d="M120.09 519.296C117.822 516.606 116.577 515.126 115.131 513.41C119.82 512.352 121.473 514.315 120.09 519.296Z" fill="white"/>
<path d="M137.574 518.711C136.485 514.043 138.057 512.29 142.29 513.455C142.003 514.279 141.932 515.261 141.384 515.875C140.615 516.735 139.492 517.322 137.574 518.711Z" fill="white"/>
<path d="M16.3 524.49C14.1808 526.069 11.9071 526.811 10.6312 523.92C10.2242 522.997 11.5533 520.301 12.2126 520.261C14.9981 520.098 16.4134 521.78 16.3 524.49Z" fill="white"/>
<path d="M32.1073 527.141C27.8964 524.5 28.412 522.38 32.0578 520.187C35.6915 522.268 36.4897 524.413 32.1073 527.141Z" fill="white"/>
<path d="M52.4054 519.95C54.0574 522.127 55.1172 524.205 51.6466 525.534C50.7416 525.881 48.4488 525.268 48.2581 524.683C47.2725 521.646 49.45 520.566 52.4054 519.95Z" fill="white"/>
<path d="M107.949 518.048C110.924 521.003 112.335 522.407 114.837 524.894C111.44 524.894 109.148 525.505 108.121 524.703C107.281 524.045 107.949 521.707 107.949 518.048Z" fill="white"/>
<path d="M149.431 520.048C150.368 523.676 148.83 525.236 144.817 524.727C144.644 521.66 146.268 520.251 149.431 520.048Z" fill="white"/>
<path d="M16.1846 506.416C14.5685 506.902 12.9546 507.388 11.3405 507.873C11.3318 506.242 11.3214 504.613 11.3111 502.984C12.9426 503.45 14.5704 503.916 16.2001 504.383C16.1949 505.061 16.1897 505.74 16.1846 506.416Z" fill="white"/>
<path d="M60.9835 402.02C62.3452 404.063 63.3154 405.518 64.8507 407.823H57.0647C58.6375 405.492 59.6165 404.045 60.9835 402.02Z" fill="white"/>
<path d="M18.2785 468.41C14.7133 470.498 13.3874 471.277 10.8338 472.77C11.0089 469.887 11.1085 468.246 11.2082 466.607C12.8825 467.033 14.5588 467.461 18.2785 468.41Z" fill="white"/>
<path d="M149.997 510.126C146.991 507.591 145.853 506.629 144.345 505.359C146.056 504.176 147.465 503.2 149.997 501.45V510.126Z" fill="white"/>
<path d="M24.0052 445.384C21.9239 444.182 20.4095 443.309 18.2081 442.036C19.6058 440.522 20.5983 439.446 21.3659 438.616C26.3324 440.22 24.8123 442.453 24.0052 445.384Z" fill="white"/>
<path d="M10.7533 411.789C12.6766 412.63 14.6013 413.47 17.5276 414.749C14.8727 416.327 13.3566 417.228 11.0434 418.603C10.6313 415.932 10.3583 414.162 10.0854 412.395L10.7533 411.789Z" fill="white"/>
<path d="M81.4085 517.634C78.6677 517.71 76.645 516.931 77.7132 513.981C78.0102 513.162 80.1652 512.093 80.8693 512.386C83.9483 513.668 83.1327 515.689 81.4085 517.634Z" fill="white"/>
<path d="M24.2406 483.174C21.213 480.65 20.057 479.687 18.5269 478.411C20.2597 477.221 21.6904 476.237 24.2406 474.485V483.174Z" fill="white"/>
<path d="M149.212 418.122C147.711 417.241 146.205 416.356 143.856 414.976C146.143 413.815 148.13 412.056 149.107 412.454C151.867 413.576 151.099 415.76 149.212 418.122Z" fill="white"/>
<path d="M13.7153 447.693C14.6753 448.873 15.6355 450.052 17.2824 452.078C14.667 452.858 12.9838 453.36 11.3008 453.862C11.1378 452.195 10.9747 450.527 10.8099 448.86C11.7784 448.472 12.7469 448.083 13.7153 447.693Z" fill="white"/>
<path d="M64.8319 422.147C63.3191 424.435 62.3589 425.887 60.9987 427.948C59.6181 425.908 58.643 424.47 57.0682 422.147H64.8319Z" fill="white"/>
<path d="M35.5195 486.407C34.5046 487.911 33.5603 489.309 32.0955 491.479C30.5276 490.112 29.4248 489.148 28.4768 488.322C30.2989 483.98 32.5813 484.943 35.5195 486.407Z" fill="white"/>
<path d="M46.385 485.392C49.7508 485.698 51.5348 485.86 53.3191 486.022C52.7404 487.58 52.1616 489.136 51.188 491.761C49.3882 489.376 48.3581 488.008 46.385 485.392Z" fill="white"/>
<path d="M76.3376 485.783C73.5574 488.605 72.5183 489.661 71.1669 491.035C69.9133 489.447 68.8639 488.118 67.0196 485.783H76.3376Z" fill="white"/>
<path d="M88.7738 490.586C88.257 489.076 87.7419 487.569 87.2251 486.059C88.9698 486.04 90.7127 486.019 92.4574 485.998C91.9628 487.508 91.4683 489.016 90.9736 490.525C90.2404 490.545 89.5071 490.565 88.7738 490.586Z" fill="white"/>
<path d="M109.909 491.741C108.919 489.129 108.334 487.583 107.748 486.035C109.537 485.863 111.327 485.695 114.595 485.384C112.679 487.985 111.67 489.35 109.909 491.741Z" fill="white"/>
<path d="M132.884 485.607C131.321 487.916 130.346 489.354 128.981 491.367C127.621 489.352 126.65 487.915 125.095 485.607H132.884Z" fill="white"/>
<path d="M147.894 492.472C145.835 489.11 145.061 487.843 143.613 485.479C146.627 485.716 148.401 485.854 150.177 485.993C149.631 487.541 149.084 489.089 147.894 492.472Z" fill="white"/>
<path d="M81.4003 427.198C78.6767 427.267 76.6555 426.491 77.7116 423.555C78.0053 422.743 80.1603 421.677 80.8661 421.97C83.9365 423.248 83.1347 425.262 81.4003 427.198Z" fill="white"/>
<path d="M30.9068 400.089C30.4499 398.577 29.9934 397.066 29.5349 395.557C31.2762 395.593 33.0158 395.632 34.7572 395.669C34.2077 397.182 33.6595 398.696 33.1099 400.209C32.3751 400.169 31.6417 400.129 30.9068 400.089Z" fill="white"/>
<path d="M88.6386 400.089C88.2076 398.576 87.7762 397.063 87.3452 395.55C89.0881 395.59 90.8298 395.63 92.5729 395.67C91.9941 397.188 91.4133 398.707 90.833 400.227C90.1014 400.178 89.37 400.133 88.6386 400.089Z" fill="white"/>
<path d="M128.215 400.672C127.528 398.737 126.968 397.162 126.408 395.583C128.196 395.425 129.982 395.263 132.319 395.053C131.785 396.779 131.714 397.781 131.189 398.491C130.66 399.207 129.681 399.633 128.215 400.672Z" fill="white"/>
</svg>
