<svg width="116" height="117" viewBox="0 0 116 117" fill="none" xmlns="http://www.w3.org/2000/svg">
<path d="M43.8914 36.0138V45.3905C43.8914 48.5957 41.2931 51.1941 38.0878 51.1941C34.8826 51.1941 32.2842 48.5957 32.2842 45.3905V36.0138C32.2842 21.9043 43.6483 10.3989 57.7043 10.1702L58.1313 10.167C72.2411 10.167 83.746 21.5313 83.9747 35.5871L83.9782 36.0138V45.3905C83.9782 48.5957 81.3798 51.1941 78.1746 51.1941C74.9694 51.1941 72.371 48.5957 72.371 45.3905V36.0138C72.371 28.2406 66.1102 21.9021 58.3664 21.7761L58.1313 21.7742C50.2794 21.7742 43.8914 28.1621 43.8914 36.0138Z" fill="#FFD666"/>
<g style="mix-blend-mode:overlay" filter="url(#filter0_i_792_1377)">
<path d="M43.8914 36.0138V51.1941H32.2842V36.0138C32.2842 21.9043 43.6483 10.3989 57.7043 10.1702L58.1313 10.167C72.2411 10.167 83.746 21.5313 83.9747 35.5871L83.9782 36.0138V51.1941H72.371V36.0138C72.371 28.2406 66.1102 21.9021 58.3664 21.7761L58.1313 21.7742C50.2794 21.7742 43.8914 28.1621 43.8914 36.0138Z" fill="white" fill-opacity="0.04"/>
</g>
<path fill-rule="evenodd" clip-rule="evenodd" d="M95.7203 82.8212C95.7203 96.0863 84.9671 106.839 71.7022 106.839H44.5596C31.2947 106.839 20.5415 96.0863 20.5415 82.8212V58.3518C20.5415 52.8282 25.0191 48.3506 30.5427 48.3506H58.1298L58.1309 48.3513L85.7191 48.3506C91.2427 48.3506 95.7203 52.8282 95.7203 58.3518V82.8212ZM53.7838 81.2922C53.7838 83.6933 55.7303 85.6398 58.1314 85.6398H59.8133C61.2855 85.6398 62.479 84.4463 62.479 82.9741C62.479 81.8758 63.1677 80.9137 64.1202 80.367C65.1188 79.7939 66.0396 79.0772 66.8438 78.2315C69.1336 75.8141 70.2988 72.6551 70.1247 69.3276C69.8001 63.0729 64.6411 58.076 58.3749 57.9487C58.349 57.9482 58.3232 57.9482 58.2975 57.9482L58.1352 57.9501C58.1342 57.9501 58.1333 57.9499 58.1324 57.9494C58.1316 57.9489 58.1307 57.9487 58.1297 57.9487C52.5205 57.9494 47.071 62.2734 46.2307 68.2898C46.1449 68.9476 46.674 69.5012 47.3374 69.5012H54.8335C54.8397 69.5012 54.8448 69.4962 54.8448 69.49C54.8764 69.2635 54.9302 69.0452 55.0039 68.8371L55.0288 68.7691C55.0409 68.7372 55.0535 68.7055 55.0665 68.6741L55.0997 68.5969C55.1772 68.4228 55.269 68.2571 55.3738 68.1012C55.5116 67.896 55.6717 67.7077 55.8505 67.5396C55.9688 67.4283 56.0954 67.3258 56.2291 67.2331L56.3139 67.1762L56.3869 67.1302L56.4395 67.0986L56.498 67.0651C56.5285 67.048 56.5594 67.0314 56.5907 67.0152C56.6455 66.9868 56.7013 66.9598 56.7579 66.9344L56.8628 66.8895C56.9169 66.8675 56.9716 66.8468 57.0271 66.8275L57.0989 66.8035C57.1906 66.7741 57.284 66.7484 57.379 66.7268C57.4269 66.7159 57.4751 66.706 57.5238 66.6972L57.5931 66.6854L57.6629 66.675L57.7439 66.6648C57.7949 66.659 57.8462 66.6543 57.8979 66.6508L57.9725 66.6465L58.0476 66.6439L58.1298 66.643C58.1306 66.643 58.1312 66.6436 58.1312 66.6443C58.1312 66.6451 58.1318 66.6457 58.1326 66.6457L58.201 66.6437C59.8993 66.6786 61.3544 68.0813 61.4412 69.7799C61.4876 70.7014 61.1688 71.5767 60.5369 72.2435L60.4786 72.303L60.4066 72.3728C59.8076 72.9363 59.043 73.2522 58.2228 73.2741L58.1321 73.2753L57.3149 73.2751C55.3648 73.2751 53.7838 74.856 53.7838 76.8062V81.2922ZM58.1312 88.6784C58.1312 88.6786 58.1313 88.6785 58.1312 88.6784C55.7657 88.6785 53.8474 90.5956 53.8474 92.9609C53.8474 95.326 55.7648 97.2436 58.1301 97.2437C58.1301 97.2435 58.1302 97.2436 58.1301 97.2437L58.1314 97.2435L58.2081 97.2428C60.5375 97.2013 62.4128 95.3001 62.4128 92.9607C62.4128 90.5959 60.4959 88.679 58.1312 88.6784Z" fill="#5F59FF"/>
<g style="mix-blend-mode:overlay" filter="url(#filter1_i_792_1377)">
<path fill-rule="evenodd" clip-rule="evenodd" d="M95.7203 82.8212C95.7203 96.0863 84.9671 106.839 71.7022 106.839H44.5596C31.2947 106.839 20.5415 96.0863 20.5415 82.8212V58.3518C20.5415 52.8282 25.0191 48.3506 30.5427 48.3506H58.1298L58.1309 48.3513L85.7191 48.3506C91.2427 48.3506 95.7203 52.8282 95.7203 58.3518V82.8212ZM53.7838 81.2922C53.7838 83.6933 55.7303 85.6398 58.1314 85.6398H59.8133C61.2855 85.6398 62.479 84.4463 62.479 82.9741C62.479 81.8758 63.1677 80.9137 64.1202 80.367C65.1188 79.7939 66.0396 79.0772 66.8438 78.2315C69.1336 75.8141 70.2988 72.6551 70.1247 69.3276C69.8001 63.0729 64.6411 58.076 58.3749 57.9487C58.349 57.9482 58.3232 57.9482 58.2975 57.9482L58.1352 57.9501C58.1342 57.9501 58.1333 57.9499 58.1324 57.9494C58.1316 57.9489 58.1307 57.9487 58.1297 57.9487C52.5205 57.9494 47.071 62.2734 46.2307 68.2898C46.1449 68.9476 46.674 69.5012 47.3374 69.5012H54.8335C54.8397 69.5012 54.8448 69.4962 54.8448 69.49C54.8764 69.2635 54.9302 69.0452 55.0039 68.8371L55.0288 68.7691C55.0409 68.7372 55.0535 68.7055 55.0665 68.6741L55.0997 68.5969C55.1772 68.4228 55.269 68.2571 55.3738 68.1012C55.5116 67.896 55.6717 67.7077 55.8505 67.5396C55.9688 67.4283 56.0954 67.3258 56.2291 67.2331L56.3139 67.1762L56.3869 67.1302L56.4395 67.0986L56.498 67.0651C56.5285 67.048 56.5594 67.0314 56.5907 67.0152C56.6455 66.9868 56.7013 66.9598 56.7579 66.9344L56.8628 66.8895C56.9169 66.8675 56.9716 66.8468 57.0271 66.8275L57.0989 66.8035C57.1906 66.7741 57.284 66.7484 57.379 66.7268C57.4269 66.7159 57.4751 66.706 57.5238 66.6972L57.5931 66.6854L57.6629 66.675L57.7439 66.6648C57.7949 66.659 57.8462 66.6543 57.8979 66.6508L57.9725 66.6465L58.0476 66.6439L58.1298 66.643C58.1306 66.643 58.1312 66.6436 58.1312 66.6443C58.1312 66.6451 58.1318 66.6457 58.1326 66.6457L58.201 66.6437C59.8993 66.6786 61.3544 68.0813 61.4412 69.7799C61.4876 70.7014 61.1688 71.5767 60.5369 72.2435L60.4786 72.303L60.4066 72.3728C59.8076 72.9363 59.043 73.2522 58.2228 73.2741L58.1321 73.2753L57.3149 73.2751C55.3648 73.2751 53.7838 74.856 53.7838 76.8062V81.2922ZM58.1312 88.6784C58.1312 88.6786 58.1313 88.6785 58.1312 88.6784C55.7657 88.6785 53.8474 90.5956 53.8474 92.9609C53.8474 95.326 55.7648 97.2436 58.1301 97.2437C58.1301 97.2435 58.1302 97.2436 58.1301 97.2437L58.1314 97.2435L58.2081 97.2428C60.5375 97.2013 62.4128 95.3001 62.4128 92.9607C62.4128 90.5959 60.4959 88.679 58.1312 88.6784Z" fill="white" fill-opacity="0.04"/>
</g>
<path fill-rule="evenodd" clip-rule="evenodd" d="M58.1314 85.6222C55.7303 85.6222 53.7838 83.6757 53.7838 81.2746V76.7886C53.7838 74.8384 55.3647 73.2575 57.3149 73.2575H58.1311C58.1313 73.2575 58.1314 73.2575 58.1316 73.2576C58.1317 73.2577 58.1319 73.2577 58.1321 73.2577L58.2227 73.2565C59.043 73.2347 59.8076 72.9187 60.4066 72.3552L60.4786 72.2855L60.5369 72.226C61.1688 71.5592 61.4876 70.6838 61.4412 69.7623C61.3544 68.0637 59.8993 66.661 58.201 66.6261L58.1325 66.6281C58.1318 66.6281 58.1311 66.6275 58.1311 66.6268C58.1311 66.626 58.1305 66.6254 58.1298 66.6254L58.0475 66.6264L57.9725 66.629L57.8978 66.6332C57.8462 66.6367 57.7949 66.6414 57.7439 66.6472L57.6629 66.6574L57.5931 66.6678L57.5237 66.6796C57.4751 66.6885 57.4268 66.6983 57.379 66.7092C57.2839 66.7309 57.1905 66.7565 57.0989 66.786L57.027 66.81C56.9716 66.8292 56.9168 66.8499 56.8628 66.872L56.7571 66.9172L56.7822 66.9061C56.7172 66.9346 56.6533 66.9651 56.5907 66.9976C56.5593 67.0138 56.5285 67.0305 56.4979 67.0476L56.4395 67.0811L56.3869 67.1126L56.3139 67.1586L56.2291 67.2155C56.0953 67.3083 55.9688 67.4108 55.8505 67.522C55.6716 67.6902 55.5115 67.8785 55.3737 68.0836C55.269 68.2396 55.1771 68.4053 55.0996 68.5794L55.0664 68.6566C55.0534 68.688 55.0409 68.7196 55.0288 68.7516L55.0038 68.8195C54.9302 69.0277 54.8764 69.246 54.8447 69.4724C54.8447 69.4786 54.8397 69.4837 54.8335 69.4837H47.3374C46.674 69.4837 46.1449 68.9301 46.2306 68.2723C47.071 62.2558 52.5205 57.9319 58.1297 57.9312C58.1306 57.9312 58.1316 57.9314 58.1324 57.9318C58.1332 57.9323 58.1342 57.9325 58.1351 57.9325L58.2975 57.9307C58.3232 57.9307 58.349 57.9307 58.3748 57.9312C64.641 58.0584 69.8001 63.0553 70.1247 69.31C70.2988 72.6376 69.1335 75.7965 66.8438 78.214C66.0396 79.0596 65.1187 79.7764 64.1202 80.3495C63.1677 80.8962 62.4789 81.8582 62.4789 82.9565C62.4789 84.4287 61.2855 85.6222 59.8132 85.6222H58.1314ZM58.1311 88.6608C58.1311 88.6607 58.1313 88.6606 58.1314 88.6606C60.4962 88.6612 62.4128 90.5783 62.4128 92.9431C62.4128 95.2826 60.5375 97.1838 58.2081 97.2253L58.1313 97.2259C58.1312 97.2259 58.1311 97.2259 58.1311 97.2257C58.1311 97.2256 58.1309 97.2255 58.1308 97.2256L58.1303 97.226C58.1303 97.2261 58.1301 97.2262 58.13 97.2262C55.7648 97.2261 53.8474 95.3084 53.8474 92.9434C53.8474 90.5781 55.7645 88.6607 58.13 88.6606C58.1301 88.6606 58.1303 88.6606 58.1303 88.6607L58.1307 88.661C58.1308 88.6612 58.1311 88.6611 58.1311 88.6608Z" fill="white"/>
<defs>
<filter id="filter0_i_792_1377" x="30.2842" y="8.16699" width="53.6938" height="43.0273" filterUnits="userSpaceOnUse" color-interpolation-filters="sRGB">
<feFlood flood-opacity="0" result="BackgroundImageFix"/>
<feBlend mode="normal" in="SourceGraphic" in2="BackgroundImageFix" result="shape"/>
<feColorMatrix in="SourceAlpha" type="matrix" values="0 0 0 0 0 0 0 0 0 0 0 0 0 0 0 0 0 0 127 0" result="hardAlpha"/>
<feOffset dx="-2" dy="-2"/>
<feGaussianBlur stdDeviation="2"/>
<feComposite in2="hardAlpha" operator="arithmetic" k2="-1" k3="1"/>
<feColorMatrix type="matrix" values="0 0 0 0 0 0 0 0 0 0 0 0 0 0 0 0 0 0 0.4 0"/>
<feBlend mode="normal" in2="shape" result="effect1_innerShadow_792_1377"/>
</filter>
<filter id="filter1_i_792_1377" x="18.5415" y="46.3506" width="77.1787" height="60.4893" filterUnits="userSpaceOnUse" color-interpolation-filters="sRGB">
<feFlood flood-opacity="0" result="BackgroundImageFix"/>
<feBlend mode="normal" in="SourceGraphic" in2="BackgroundImageFix" result="shape"/>
<feColorMatrix in="SourceAlpha" type="matrix" values="0 0 0 0 0 0 0 0 0 0 0 0 0 0 0 0 0 0 127 0" result="hardAlpha"/>
<feOffset dx="-2" dy="-2"/>
<feGaussianBlur stdDeviation="2"/>
<feComposite in2="hardAlpha" operator="arithmetic" k2="-1" k3="1"/>
<feColorMatrix type="matrix" values="0 0 0 0 0 0 0 0 0 0 0 0 0 0 0 0 0 0 0.4 0"/>
<feBlend mode="normal" in2="shape" result="effect1_innerShadow_792_1377"/>
</filter>
</defs>
</svg>
