<svg width="116" height="116" viewBox="0 0 116 116" fill="none" xmlns="http://www.w3.org/2000/svg">
<path d="M45.0162 29.9445C43.7415 32.8853 41.2511 35.589 38.0458 35.589C34.8406 35.589 32.1749 32.9569 32.8884 29.8321C35.4816 18.4751 45.5769 9.94206 57.6624 9.74543L58.0893 9.74219C72.1991 9.74219 83.704 21.1065 83.9327 35.1623L83.9362 35.589V44.9657C83.9362 48.1709 81.3378 50.7693 78.1326 50.7693C74.9274 50.7693 72.329 48.1709 72.329 44.9657V35.589C72.329 27.8158 66.0682 21.4773 58.3245 21.3513L58.0893 21.3494C52.2416 21.3494 47.2059 24.8924 45.0162 29.9445Z" fill="#FFD666"/>
<g style="mix-blend-mode:overlay" filter="url(#filter0_i_792_1072)">
<path d="M43.8494 35.589H32.2422C32.2422 21.4795 43.6063 9.97412 57.6624 9.74543L58.0893 9.74219C72.1991 9.74219 83.704 21.1065 83.9327 35.1623L83.9362 35.589V50.7693H72.329V35.589C72.329 27.8158 66.0682 21.4773 58.3245 21.3513L58.0893 21.3494C50.2374 21.3494 43.8494 27.7373 43.8494 35.589Z" fill="white" fill-opacity="0.04"/>
</g>
<path fill-rule="evenodd" clip-rule="evenodd" d="M95.6787 82.2401C95.6787 95.5052 84.9256 106.258 71.6607 106.258H44.5181C31.2532 106.258 20.5 95.5052 20.5 82.2401V57.7707C20.5 52.2471 24.9776 47.7695 30.5012 47.7695H58.0883L58.0894 47.7702L85.6776 47.7695C91.2012 47.7695 95.6787 52.2471 95.6787 57.7707V82.2401ZM53.7423 80.7111C53.7423 83.1122 55.6888 85.0587 58.0899 85.0587H59.7718C61.244 85.0587 62.4375 83.8652 62.4375 82.393C62.4375 81.2947 63.1262 80.3327 64.0787 79.786C65.0773 79.2129 65.9981 78.4961 66.8023 77.6505C69.0921 75.233 70.2573 72.0741 70.0832 68.7465C69.7586 62.4918 64.5996 57.4949 58.3334 57.3677C58.3075 57.3672 58.2817 57.3672 58.256 57.3672L58.0937 57.369C58.0927 57.369 58.0918 57.3688 58.0909 57.3683C58.0901 57.3679 58.0892 57.3677 58.0882 57.3677C52.479 57.3684 47.0295 61.6923 46.1892 67.7088C46.1034 68.3666 46.6325 68.9202 47.2959 68.9202H54.792C54.7982 68.9202 54.8033 68.9151 54.8033 68.9089C54.8349 68.6825 54.8887 68.4642 54.9624 68.2561L54.9873 68.1881C54.9994 68.1561 55.012 68.1245 55.025 68.0931L55.0582 68.0159C55.1356 67.8418 55.2275 67.6761 55.3323 67.5201C55.4701 67.315 55.6302 67.1267 55.809 66.9585C55.9273 66.8473 56.0539 66.7448 56.1876 66.652L56.2724 66.5951L56.3454 66.5491L56.398 66.5176L56.4564 66.4841C56.487 66.467 56.5179 66.4503 56.5492 66.4341C56.604 66.4057 56.6598 66.3788 56.7164 66.3534L56.8213 66.3085C56.8753 66.2864 56.9301 66.2657 56.9856 66.2465L57.0574 66.2225C57.1491 66.193 57.2425 66.1674 57.3375 66.1457C57.3854 66.1348 57.4336 66.125 57.4823 66.1161L57.5516 66.1043L57.6214 66.0939L57.7024 66.0837C57.7534 66.0779 57.8047 66.0732 57.8564 66.0697L57.931 66.0655L58.0061 66.0629L58.0883 66.0619C58.0891 66.0619 58.0897 66.0625 58.0897 66.0633C58.0897 66.064 58.0903 66.0646 58.0911 66.0646L58.1595 66.0626C59.8578 66.0975 61.3129 67.5002 61.3997 69.1988C61.4461 70.1203 61.1273 70.9957 60.4954 71.6625L60.4371 71.722L60.3651 71.7917C59.7661 72.3552 59.0015 72.6712 58.1813 72.693L58.0906 72.6942L57.2734 72.694C55.3233 72.694 53.7423 74.2749 53.7423 76.2251V80.7111ZM58.0897 88.0973C58.0897 88.0976 58.0898 88.0975 58.0897 88.0973C55.7242 88.0974 53.8059 90.0146 53.8059 92.3799C53.8059 94.7449 55.7233 96.6626 58.0886 96.6627C58.0886 96.6625 58.0887 96.6625 58.0886 96.6627L58.0899 96.6624L58.1666 96.6618C60.496 96.6203 62.3713 94.719 62.3713 92.3796C62.3713 90.0148 60.4544 88.0979 58.0897 88.0973Z" fill="#5F59FF"/>
<g style="mix-blend-mode:overlay" filter="url(#filter1_i_792_1072)">
<path fill-rule="evenodd" clip-rule="evenodd" d="M95.6787 82.2401C95.6787 95.5052 84.9256 106.258 71.6607 106.258H44.5181C31.2532 106.258 20.5 95.5052 20.5 82.2401V57.7707C20.5 52.2471 24.9776 47.7695 30.5012 47.7695H58.0883L58.0894 47.7702L85.6776 47.7695C91.2012 47.7695 95.6787 52.2471 95.6787 57.7707V82.2401ZM53.7423 80.7111C53.7423 83.1122 55.6888 85.0587 58.0899 85.0587H59.7718C61.244 85.0587 62.4375 83.8652 62.4375 82.393C62.4375 81.2947 63.1262 80.3327 64.0787 79.786C65.0773 79.2129 65.9981 78.4961 66.8023 77.6505C69.0921 75.233 70.2573 72.0741 70.0832 68.7465C69.7586 62.4918 64.5996 57.4949 58.3334 57.3677C58.3075 57.3672 58.2817 57.3672 58.256 57.3672L58.0937 57.369C58.0927 57.369 58.0918 57.3688 58.0909 57.3683C58.0901 57.3679 58.0892 57.3677 58.0882 57.3677C52.479 57.3684 47.0295 61.6923 46.1892 67.7088C46.1034 68.3666 46.6325 68.9202 47.2959 68.9202H54.792C54.7982 68.9202 54.8033 68.9151 54.8033 68.9089C54.8349 68.6825 54.8887 68.4642 54.9624 68.2561L54.9873 68.1881C54.9994 68.1561 55.012 68.1245 55.025 68.0931L55.0582 68.0159C55.1356 67.8418 55.2275 67.6761 55.3323 67.5201C55.4701 67.315 55.6302 67.1267 55.809 66.9585C55.9273 66.8473 56.0539 66.7448 56.1876 66.652L56.2724 66.5951L56.3454 66.5491L56.398 66.5176L56.4564 66.4841C56.487 66.467 56.5179 66.4503 56.5492 66.4341C56.604 66.4057 56.6598 66.3788 56.7164 66.3534L56.8213 66.3085C56.8753 66.2864 56.9301 66.2657 56.9856 66.2465L57.0574 66.2225C57.1491 66.193 57.2425 66.1674 57.3375 66.1457C57.3854 66.1348 57.4336 66.125 57.4823 66.1161L57.5516 66.1043L57.6214 66.0939L57.7024 66.0837C57.7534 66.0779 57.8047 66.0732 57.8564 66.0697L57.931 66.0655L58.0061 66.0629L58.0883 66.0619C58.0891 66.0619 58.0897 66.0625 58.0897 66.0633C58.0897 66.064 58.0903 66.0646 58.0911 66.0646L58.1595 66.0626C59.8578 66.0975 61.3129 67.5002 61.3997 69.1988C61.4461 70.1203 61.1273 70.9957 60.4954 71.6625L60.4371 71.722L60.3651 71.7917C59.7661 72.3552 59.0015 72.6712 58.1813 72.693L58.0906 72.6942L57.2734 72.694C55.3233 72.694 53.7423 74.2749 53.7423 76.2251V80.7111ZM58.0897 88.0973C58.0897 88.0976 58.0898 88.0975 58.0897 88.0973C55.7242 88.0974 53.8059 90.0146 53.8059 92.3799C53.8059 94.7449 55.7233 96.6626 58.0886 96.6627C58.0886 96.6625 58.0887 96.6625 58.0886 96.6627L58.0899 96.6624L58.1666 96.6618C60.496 96.6203 62.3713 94.719 62.3713 92.3796C62.3713 90.0148 60.4544 88.0979 58.0897 88.0973Z" fill="white" fill-opacity="0.04"/>
</g>
<defs>
<filter id="filter0_i_792_1072" x="30.2422" y="7.74219" width="53.6943" height="43.0273" filterUnits="userSpaceOnUse" color-interpolation-filters="sRGB">
<feFlood flood-opacity="0" result="BackgroundImageFix"/>
<feBlend mode="normal" in="SourceGraphic" in2="BackgroundImageFix" result="shape"/>
<feColorMatrix in="SourceAlpha" type="matrix" values="0 0 0 0 0 0 0 0 0 0 0 0 0 0 0 0 0 0 127 0" result="hardAlpha"/>
<feOffset dx="-2" dy="-2"/>
<feGaussianBlur stdDeviation="2"/>
<feComposite in2="hardAlpha" operator="arithmetic" k2="-1" k3="1"/>
<feColorMatrix type="matrix" values="0 0 0 0 0 0 0 0 0 0 0 0 0 0 0 0 0 0 0.4 0"/>
<feBlend mode="normal" in2="shape" result="effect1_innerShadow_792_1072"/>
</filter>
<filter id="filter1_i_792_1072" x="18.5" y="45.7695" width="77.1787" height="60.4893" filterUnits="userSpaceOnUse" color-interpolation-filters="sRGB">
<feFlood flood-opacity="0" result="BackgroundImageFix"/>
<feBlend mode="normal" in="SourceGraphic" in2="BackgroundImageFix" result="shape"/>
<feColorMatrix in="SourceAlpha" type="matrix" values="0 0 0 0 0 0 0 0 0 0 0 0 0 0 0 0 0 0 127 0" result="hardAlpha"/>
<feOffset dx="-2" dy="-2"/>
<feGaussianBlur stdDeviation="2"/>
<feComposite in2="hardAlpha" operator="arithmetic" k2="-1" k3="1"/>
<feColorMatrix type="matrix" values="0 0 0 0 0 0 0 0 0 0 0 0 0 0 0 0 0 0 0.4 0"/>
<feBlend mode="normal" in2="shape" result="effect1_innerShadow_792_1072"/>
</filter>
</defs>
</svg>
