<svg width="116" height="117" viewBox="0 0 116 117" fill="none" xmlns="http://www.w3.org/2000/svg">
<g filter="url(#filter0_di_792_800)">
<path fill-rule="evenodd" clip-rule="evenodd" d="M19.3335 24.667V48.6159C19.3335 51.7803 20.8709 54.739 23.5177 56.4732C31.6989 61.8334 49.7352 73.0003 58.0002 73.0003C66.2652 73.0003 84.3015 61.8334 92.4826 56.4732C95.1293 54.739 96.6668 51.7803 96.6668 48.6159V24.667C96.6668 16.6589 90.1749 10.167 82.1668 10.167H33.8335C25.8254 10.167 19.3335 16.6589 19.3335 24.667ZM37.4585 24.6672C35.4565 24.6672 33.8335 26.2903 33.8335 28.2922C33.8335 30.2942 35.4565 31.9172 37.4585 31.9172H59.2085C61.2105 31.9172 62.8335 30.2942 62.8335 28.2922C62.8335 26.2903 61.2105 24.6672 59.2085 24.6672H37.4585ZM37.4585 41.5839C35.4565 41.5839 33.8335 43.2069 33.8335 45.2089C33.8335 47.2109 35.4565 48.8339 37.4585 48.8339H73.7085C75.7105 48.8339 77.3335 47.2109 77.3335 45.2089C77.3335 43.2069 75.7105 41.5839 73.7085 41.5839H37.4585Z" fill="#FFD666"/>
</g>
<g style="mix-blend-mode:overlay" filter="url(#filter1_i_792_800)">
<path fill-rule="evenodd" clip-rule="evenodd" d="M19.3335 24.667V48.6159C19.3335 51.7803 20.8709 54.739 23.5177 56.4732C31.6989 61.8334 49.7352 73.0003 58.0002 73.0003C66.2652 73.0003 84.3015 61.8334 92.4826 56.4732C95.1293 54.739 96.6668 51.7803 96.6668 48.6159V24.667C96.6668 16.6589 90.1749 10.167 82.1668 10.167H33.8335C25.8254 10.167 19.3335 16.6589 19.3335 24.667ZM37.4585 24.6672C35.4565 24.6672 33.8335 26.2903 33.8335 28.2922C33.8335 30.2942 35.4565 31.9172 37.4585 31.9172H59.2085C61.2105 31.9172 62.8335 30.2942 62.8335 28.2922C62.8335 26.2903 61.2105 24.6672 59.2085 24.6672H37.4585ZM37.4585 41.5839C35.4565 41.5839 33.8335 43.2069 33.8335 45.2089C33.8335 47.2109 35.4565 48.8339 37.4585 48.8339H73.7085C75.7105 48.8339 77.3335 47.2109 77.3335 45.2089C77.3335 43.2069 75.7105 41.5839 73.7085 41.5839H37.4585Z" fill="white" fill-opacity="0.04"/>
</g>
<path d="M33.8335 28.292C33.8335 26.29 35.4565 24.667 37.4585 24.667H59.2085C61.2105 24.667 62.8335 26.29 62.8335 28.292C62.8335 30.294 61.2105 31.917 59.2085 31.917H37.4585C35.4565 31.917 33.8335 30.294 33.8335 28.292Z" fill="#B76E00"/>
<path d="M33.8335 45.2087C33.8335 43.2067 35.4565 41.5837 37.4585 41.5837H73.7085C75.7105 41.5837 77.3335 43.2067 77.3335 45.2087C77.3335 47.2106 75.7105 48.8337 73.7085 48.8337H37.4585C35.4565 48.8337 33.8335 47.2106 33.8335 45.2087Z" fill="#B76E00"/>
<path d="M19.3333 30.7129C16.8707 32.5408 14.6944 34.2126 12.9482 35.5781C10.0386 37.8534 8.21466 41.209 7.96852 44.8944C7.6336 49.9094 7.25 58.3281 7.25 70.5831C7.25 82.1724 7.93614 90.3309 8.57721 95.4245C9.10578 99.6241 11.9175 102.955 16.063 103.81C22.71 105.182 35.4027 106.833 58 106.833C80.5973 106.833 93.2901 105.182 99.9369 103.81C104.082 102.955 106.894 99.6241 107.423 95.4245C108.064 90.3309 108.75 82.1724 108.75 70.5831C108.75 58.3281 108.366 49.9094 108.032 44.8944C107.785 41.209 105.961 37.8534 103.052 35.5781C101.306 34.2126 99.1292 32.5408 96.6667 30.7129V48.6153C96.6667 51.7797 95.1292 54.7384 92.4825 56.4726C84.3013 61.8328 66.265 72.9997 58 72.9997C49.735 72.9997 31.6987 61.8328 23.5176 56.4726C20.8707 54.7384 19.3333 51.7797 19.3333 48.6153V30.7129Z" fill="#5F59FF"/>
<g style="mix-blend-mode:overlay" filter="url(#filter2_i_792_800)">
<path d="M19.3333 30.7129C16.8707 32.5408 14.6944 34.2126 12.9482 35.5781C10.0386 37.8534 8.21466 41.209 7.96852 44.8944C7.6336 49.9094 7.25 58.3281 7.25 70.5831C7.25 82.1724 7.93614 90.3309 8.57721 95.4245C9.10578 99.6241 11.9175 102.955 16.063 103.81C22.71 105.182 35.4027 106.833 58 106.833C80.5973 106.833 93.2901 105.182 99.9369 103.81C104.082 102.955 106.894 99.6241 107.423 95.4245C108.064 90.3309 108.75 82.1724 108.75 70.5831C108.75 58.3281 108.366 49.9094 108.032 44.8944C107.785 41.209 105.961 37.8534 103.052 35.5781C101.306 34.2126 99.1292 32.5408 96.6667 30.7129V48.6153C96.6667 51.7797 95.1292 54.7384 92.4825 56.4726C84.3013 61.8328 66.265 72.9997 58 72.9997C49.735 72.9997 31.6987 61.8328 23.5176 56.4726C20.8707 54.7384 19.3333 51.7797 19.3333 48.6153V30.7129Z" fill="white" fill-opacity="0.04"/>
</g>
<defs>
<filter id="filter0_di_792_800" x="15.3335" y="6.16699" width="93.3335" height="78.833" filterUnits="userSpaceOnUse" color-interpolation-filters="sRGB">
<feFlood flood-opacity="0" result="BackgroundImageFix"/>
<feColorMatrix in="SourceAlpha" type="matrix" values="0 0 0 0 0 0 0 0 0 0 0 0 0 0 0 0 0 0 127 0" result="hardAlpha"/>
<feOffset dx="4" dy="4"/>
<feGaussianBlur stdDeviation="4"/>
<feColorMatrix type="matrix" values="0 0 0 0 0.717647 0 0 0 0 0.431373 0 0 0 0 0 0 0 0 0.16 0"/>
<feBlend mode="normal" in2="BackgroundImageFix" result="effect1_dropShadow_792_800"/>
<feBlend mode="normal" in="SourceGraphic" in2="effect1_dropShadow_792_800" result="shape"/>
<feColorMatrix in="SourceAlpha" type="matrix" values="0 0 0 0 0 0 0 0 0 0 0 0 0 0 0 0 0 0 127 0" result="hardAlpha"/>
<feOffset dx="-1" dy="-1"/>
<feGaussianBlur stdDeviation="1"/>
<feComposite in2="hardAlpha" operator="arithmetic" k2="-1" k3="1"/>
<feColorMatrix type="matrix" values="0 0 0 0 0.717647 0 0 0 0 0.431373 0 0 0 0 0 0 0 0 0.48 0"/>
<feBlend mode="normal" in2="shape" result="effect2_innerShadow_792_800"/>
</filter>
<filter id="filter1_i_792_800" x="17.3335" y="8.16699" width="79.3335" height="64.833" filterUnits="userSpaceOnUse" color-interpolation-filters="sRGB">
<feFlood flood-opacity="0" result="BackgroundImageFix"/>
<feBlend mode="normal" in="SourceGraphic" in2="BackgroundImageFix" result="shape"/>
<feColorMatrix in="SourceAlpha" type="matrix" values="0 0 0 0 0 0 0 0 0 0 0 0 0 0 0 0 0 0 127 0" result="hardAlpha"/>
<feOffset dx="-2" dy="-2"/>
<feGaussianBlur stdDeviation="2"/>
<feComposite in2="hardAlpha" operator="arithmetic" k2="-1" k3="1"/>
<feColorMatrix type="matrix" values="0 0 0 0 0 0 0 0 0 0 0 0 0 0 0 0 0 0 0.4 0"/>
<feBlend mode="normal" in2="shape" result="effect1_innerShadow_792_800"/>
</filter>
<filter id="filter2_i_792_800" x="5.25" y="28.7129" width="103.5" height="78.1201" filterUnits="userSpaceOnUse" color-interpolation-filters="sRGB">
<feFlood flood-opacity="0" result="BackgroundImageFix"/>
<feBlend mode="normal" in="SourceGraphic" in2="BackgroundImageFix" result="shape"/>
<feColorMatrix in="SourceAlpha" type="matrix" values="0 0 0 0 0 0 0 0 0 0 0 0 0 0 0 0 0 0 127 0" result="hardAlpha"/>
<feOffset dx="-2" dy="-2"/>
<feGaussianBlur stdDeviation="2"/>
<feComposite in2="hardAlpha" operator="arithmetic" k2="-1" k3="1"/>
<feColorMatrix type="matrix" values="0 0 0 0 0 0 0 0 0 0 0 0 0 0 0 0 0 0 0.4 0"/>
<feBlend mode="normal" in2="shape" result="effect1_innerShadow_792_800"/>
</filter>
</defs>
</svg>
